<svg width="20" height="17" viewBox="0 0 20 17" fill="none" xmlns="http://www.w3.org/2000/svg">
<path d="M6.34108e-09 4.65818L9.68546 9.69545C9.78261 9.74597 9.8905 9.77234 10 9.77234C10.1095 9.77234 10.2174 9.74597 10.3145 9.69545L20 4.65909V13.4091C20 14.1638 19.7113 14.8898 19.193 15.4384C18.6747 15.9869 17.9662 16.3164 17.2127 16.3591L17.0455 16.3636H2.95455C2.19987 16.3637 1.47379 16.0749 0.925245 15.5567C0.376697 15.0384 0.0472715 14.3298 0.00454557 13.5764L6.34108e-09 13.4091V4.65818ZM2.95455 6.34108e-09H17.0455C17.8001 -4.94061e-05 18.5262 0.288685 19.0748 0.806974C19.6233 1.32526 19.9527 2.03381 19.9955 2.78727L20 2.95455V3.12182L10 8.32182L6.34108e-09 3.12182V2.95455C-4.94061e-05 2.19987 0.288686 1.47379 0.806974 0.925245C1.32526 0.376697 2.03381 0.0472715 2.78727 0.00454556L2.95455 6.34108e-09H17.0455H2.95455Z" fill="#3F3D56"/>
</svg>
