<svg width="668" height="124" viewBox="0 0 668 124" fill="none" xmlns="http://www.w3.org/2000/svg">
<path d="M18.844 3.505V7.318H6.749V15.723H16.179V19.536H6.749V32H2.075V3.505H18.844ZM43.6346 9.409V32H38.9606V29.335C38.2226 30.2643 37.2523 31.0023 36.0496 31.549C34.8743 32.0683 33.6169 32.328 32.2776 32.328C30.5009 32.328 28.9019 31.959 27.4806 31.221C26.0866 30.483 24.9796 29.3897 24.1596 27.941C23.3669 26.4923 22.9706 24.743 22.9706 22.693V9.409H27.6036V21.996C27.6036 24.0187 28.1093 25.5767 29.1206 26.67C30.1319 27.736 31.5123 28.269 33.2616 28.269C35.0109 28.269 36.3913 27.736 37.4026 26.67C38.4413 25.5767 38.9606 24.0187 38.9606 21.996V9.409H43.6346ZM61.1996 9.04C62.9762 9.04 64.5616 9.409 65.9556 10.147C67.3769 10.885 68.4839 11.9783 69.2766 13.427C70.0692 14.8757 70.4656 16.625 70.4656 18.675V32H65.8326V19.372C65.8326 17.3493 65.3269 15.805 64.3156 14.739C63.3042 13.6457 61.9239 13.099 60.1746 13.099C58.4252 13.099 57.0312 13.6457 55.9926 14.739C54.9812 15.805 54.4756 17.3493 54.4756 19.372V32H49.8016V9.409H54.4756V11.992C55.2409 11.0627 56.2112 10.3383 57.3866 9.819C58.5892 9.29967 59.8602 9.04 61.1996 9.04ZM74.8695 20.602C74.8695 18.3333 75.3342 16.3243 76.2635 14.575C77.2202 12.8257 78.5049 11.4727 80.1175 10.516C81.7575 9.532 83.5752 9.04 85.5705 9.04C87.0465 9.04 88.4952 9.368 89.9165 10.024C91.3652 10.6527 92.5132 11.5 93.3605 12.566V1.66H98.0755V32H93.3605V28.597C92.5952 29.6903 91.5292 30.5923 90.1625 31.303C88.8232 32.0137 87.2789 32.369 85.5295 32.369C83.5615 32.369 81.7575 31.877 80.1175 30.893C78.5049 29.8817 77.2202 28.4877 76.2635 26.711C75.3342 24.907 74.8695 22.8707 74.8695 20.602ZM93.3605 20.684C93.3605 19.126 93.0325 17.773 92.3765 16.625C91.7479 15.477 90.9142 14.6023 89.8755 14.001C88.8369 13.3997 87.7162 13.099 86.5135 13.099C85.3109 13.099 84.1902 13.3997 83.1515 14.001C82.1129 14.575 81.2655 15.436 80.6095 16.584C79.9809 17.7047 79.6665 19.044 79.6665 20.602C79.6665 22.16 79.9809 23.5267 80.6095 24.702C81.2655 25.8773 82.1129 26.7793 83.1515 27.408C84.2175 28.0093 85.3382 28.31 86.5135 28.31C87.7162 28.31 88.8369 28.0093 89.8755 27.408C90.9142 26.8067 91.7479 25.932 92.3765 24.784C93.0325 23.6087 93.3605 22.242 93.3605 20.684ZM112.415 32.369C110.638 32.369 109.039 32.0547 107.618 31.426C106.224 30.77 105.117 29.8953 104.297 28.802C103.477 27.6813 103.039 26.4377 102.985 25.071H107.823C107.905 26.0277 108.356 26.834 109.176 27.49C110.023 28.1187 111.075 28.433 112.333 28.433C113.645 28.433 114.656 28.187 115.367 27.695C116.105 27.1757 116.474 26.5197 116.474 25.727C116.474 24.8797 116.064 24.251 115.244 23.841C114.451 23.431 113.18 22.98 111.431 22.488C109.736 22.0233 108.356 21.5723 107.29 21.135C106.224 20.6977 105.294 20.028 104.502 19.126C103.736 18.224 103.354 17.035 103.354 15.559C103.354 14.3563 103.709 13.263 104.42 12.279C105.13 11.2677 106.142 10.475 107.454 9.901C108.793 9.327 110.324 9.04 112.046 9.04C114.615 9.04 116.679 9.696 118.237 11.008C119.822 12.2927 120.669 14.0557 120.779 16.297H116.105C116.023 15.2857 115.613 14.4793 114.875 13.878C114.137 13.2767 113.139 12.976 111.882 12.976C110.652 12.976 109.709 13.2083 109.053 13.673C108.397 14.1377 108.069 14.7527 108.069 15.518C108.069 16.1193 108.287 16.625 108.725 17.035C109.162 17.445 109.695 17.773 110.324 18.019C110.952 18.2377 111.882 18.5247 113.112 18.88C114.752 19.3173 116.091 19.7683 117.13 20.233C118.196 20.6703 119.111 21.3263 119.877 22.201C120.642 23.0757 121.038 24.2373 121.066 25.686C121.066 26.9707 120.71 28.1187 120 29.13C119.289 30.1413 118.278 30.934 116.966 31.508C115.681 32.082 114.164 32.369 112.415 32.369ZM155.175 3.505V7.318H147.59V32H142.916V7.318H135.29V3.505H155.175ZM164.583 12.689C165.266 11.541 166.168 10.6527 167.289 10.024C168.437 9.368 169.79 9.04 171.348 9.04V13.878H170.159C168.328 13.878 166.934 14.3427 165.977 15.272C165.048 16.2013 164.583 17.814 164.583 20.11V32H159.909V9.409H164.583V12.689ZM174.086 20.602C174.086 18.3333 174.551 16.3243 175.48 14.575C176.437 12.8257 177.722 11.4727 179.334 10.516C180.974 9.532 182.778 9.04 184.746 9.04C186.523 9.04 188.067 9.39533 189.379 10.106C190.719 10.7893 191.785 11.6503 192.577 12.689V9.409H197.292V32H192.577V28.638C191.785 29.704 190.705 30.5923 189.338 31.303C187.972 32.0137 186.414 32.369 184.664 32.369C182.724 32.369 180.947 31.877 179.334 30.893C177.722 29.8817 176.437 28.4877 175.48 26.711C174.551 24.907 174.086 22.8707 174.086 20.602ZM192.577 20.684C192.577 19.126 192.249 17.773 191.593 16.625C190.965 15.477 190.131 14.6023 189.092 14.001C188.054 13.3997 186.933 13.099 185.73 13.099C184.528 13.099 183.407 13.3997 182.368 14.001C181.33 14.575 180.482 15.436 179.826 16.584C179.198 17.7047 178.883 19.044 178.883 20.602C178.883 22.16 179.198 23.5267 179.826 24.702C180.482 25.8773 181.33 26.7793 182.368 27.408C183.434 28.0093 184.555 28.31 185.73 28.31C186.933 28.31 188.054 28.0093 189.092 27.408C190.131 26.8067 190.965 25.932 191.593 24.784C192.249 23.6087 192.577 22.242 192.577 20.684ZM214.829 9.04C216.606 9.04 218.191 9.409 219.585 10.147C221.007 10.885 222.114 11.9783 222.906 13.427C223.699 14.8757 224.095 16.625 224.095 18.675V32H219.462V19.372C219.462 17.3493 218.957 15.805 217.945 14.739C216.934 13.6457 215.554 13.099 213.804 13.099C212.055 13.099 210.661 13.6457 209.622 14.739C208.611 15.805 208.105 17.3493 208.105 19.372V32H203.431V9.409H208.105V11.992C208.871 11.0627 209.841 10.3383 211.016 9.819C212.219 9.29967 213.49 9.04 214.829 9.04ZM238.257 32.369C236.481 32.369 234.882 32.0547 233.46 31.426C232.066 30.77 230.959 29.8953 230.139 28.802C229.319 27.6813 228.882 26.4377 228.827 25.071H233.665C233.747 26.0277 234.198 26.834 235.018 27.49C235.866 28.1187 236.918 28.433 238.175 28.433C239.487 28.433 240.499 28.187 241.209 27.695C241.947 27.1757 242.316 26.5197 242.316 25.727C242.316 24.8797 241.906 24.251 241.086 23.841C240.294 23.431 239.023 22.98 237.273 22.488C235.579 22.0233 234.198 21.5723 233.132 21.135C232.066 20.6977 231.137 20.028 230.344 19.126C229.579 18.224 229.196 17.035 229.196 15.559C229.196 14.3563 229.552 13.263 230.262 12.279C230.973 11.2677 231.984 10.475 233.296 9.901C234.636 9.327 236.166 9.04 237.888 9.04C240.458 9.04 242.521 9.696 244.079 11.008C245.665 12.2927 246.512 14.0557 246.621 16.297H241.947C241.865 15.2857 241.455 14.4793 240.717 13.878C239.979 13.2767 238.982 12.976 237.724 12.976C236.494 12.976 235.551 13.2083 234.895 13.673C234.239 14.1377 233.911 14.7527 233.911 15.518C233.911 16.1193 234.13 16.625 234.567 17.035C235.005 17.445 235.538 17.773 236.166 18.019C236.795 18.2377 237.724 18.5247 238.954 18.88C240.594 19.3173 241.934 19.7683 242.972 20.233C244.038 20.6703 244.954 21.3263 245.719 22.201C246.485 23.0757 246.881 24.2373 246.908 25.686C246.908 26.9707 246.553 28.1187 245.842 29.13C245.132 30.1413 244.12 30.934 242.808 31.508C241.524 32.082 240.007 32.369 238.257 32.369ZM261.43 13.222H257.248V32H252.533V13.222H249.868V9.409H252.533V7.81C252.533 5.21333 253.216 3.32733 254.583 2.152C255.977 0.949332 258.15 0.347999 261.102 0.347999V4.243C259.68 4.243 258.683 4.51633 258.109 5.063C257.535 5.58233 257.248 6.498 257.248 7.81V9.409H261.43V13.222ZM286.277 20.151C286.277 20.9983 286.222 21.7637 286.113 22.447H268.852C268.989 24.251 269.658 25.6997 270.861 26.793C272.064 27.8863 273.54 28.433 275.289 28.433C277.804 28.433 279.58 27.3807 280.619 25.276H285.662C284.979 27.3533 283.735 29.0617 281.931 30.401C280.154 31.713 277.94 32.369 275.289 32.369C273.13 32.369 271.189 31.8907 269.467 30.934C267.772 29.95 266.433 28.5833 265.449 26.834C264.492 25.0573 264.014 23.0073 264.014 20.684C264.014 18.3607 264.479 16.3243 265.408 14.575C266.365 12.7983 267.69 11.4317 269.385 10.475C271.107 9.51833 273.075 9.04 275.289 9.04C277.421 9.04 279.321 9.50467 280.988 10.434C282.655 11.3633 283.954 12.6753 284.883 14.37C285.812 16.0373 286.277 17.9643 286.277 20.151ZM281.398 18.675C281.371 16.953 280.756 15.5727 279.553 14.534C278.35 13.4953 276.861 12.976 275.084 12.976C273.471 12.976 272.091 13.4953 270.943 14.534C269.795 15.5453 269.112 16.9257 268.893 18.675H281.398ZM295.551 12.689C296.234 11.541 297.136 10.6527 298.257 10.024C299.405 9.368 300.758 9.04 302.316 9.04V13.878H301.127C299.295 13.878 297.901 14.3427 296.945 15.272C296.015 16.2013 295.551 17.814 295.551 20.11V32H290.877V9.409H295.551V12.689Z" fill="#6C63FF"/>
<path d="M23.6496 58.787L17.0666 71.373V79H14.4276V71.373L7.81565 58.787H10.7446L15.7326 69.024L20.7206 58.787H23.6496ZM33.3642 79.261C31.8755 79.261 30.5222 78.9227 29.3042 78.246C28.1055 77.5693 27.1582 76.6123 26.4622 75.375C25.7855 74.1183 25.4472 72.6683 25.4472 71.025C25.4472 69.401 25.7952 67.9703 26.4912 66.733C27.2065 65.4763 28.1732 64.5193 29.3912 63.862C30.6092 63.1853 31.9722 62.847 33.4802 62.847C34.9882 62.847 36.3512 63.1853 37.5692 63.862C38.7872 64.5193 39.7442 65.4667 40.4402 66.704C41.1555 67.9413 41.5132 69.3817 41.5132 71.025C41.5132 72.6683 41.1459 74.1183 40.4112 75.375C39.6959 76.6123 38.7195 77.5693 37.4822 78.246C36.2449 78.9227 34.8722 79.261 33.3642 79.261ZM33.3642 76.941C34.3115 76.941 35.2009 76.7187 36.0322 76.274C36.8635 75.8293 37.5305 75.1623 38.0332 74.273C38.5552 73.3837 38.8162 72.301 38.8162 71.025C38.8162 69.749 38.5649 68.6663 38.0622 67.777C37.5595 66.8877 36.9022 66.2303 36.0902 65.805C35.2782 65.3603 34.3985 65.138 33.4512 65.138C32.4845 65.138 31.5952 65.3603 30.7832 65.805C29.9905 66.2303 29.3525 66.8877 28.8692 67.777C28.3859 68.6663 28.1442 69.749 28.1442 71.025C28.1442 72.3203 28.3762 73.4127 28.8402 74.302C29.3235 75.1913 29.9615 75.8583 30.7542 76.303C31.5469 76.7283 32.4169 76.941 33.3642 76.941ZM59.077 63.108V79H56.438V76.651C55.9353 77.463 55.2297 78.101 54.321 78.565C53.4317 79.0097 52.4457 79.232 51.363 79.232C50.1257 79.232 49.014 78.9807 48.028 78.478C47.042 77.956 46.259 77.1827 45.679 76.158C45.1183 75.1333 44.838 73.8863 44.838 72.417V63.108H47.448V72.069C47.448 73.635 47.8443 74.8433 48.637 75.694C49.4297 76.5253 50.5123 76.941 51.885 76.941C53.2963 76.941 54.408 76.506 55.22 75.636C56.032 74.766 56.438 73.4997 56.438 71.837V63.108H59.077ZM70.2783 71.025C70.2783 69.3817 70.6069 67.951 71.2643 66.733C71.9216 65.4957 72.8303 64.5387 73.9903 63.862C75.1696 63.1853 76.5133 62.847 78.0213 62.847C79.9739 62.847 81.5786 63.3207 82.8353 64.268C84.1113 65.2153 84.9523 66.53 85.3583 68.212H82.5163C82.2456 67.2453 81.7139 66.4817 80.9213 65.921C80.1479 65.3603 79.1813 65.08 78.0213 65.08C76.5133 65.08 75.2953 65.602 74.3673 66.646C73.4393 67.6707 72.9753 69.1303 72.9753 71.025C72.9753 72.939 73.4393 74.418 74.3673 75.462C75.2953 76.506 76.5133 77.028 78.0213 77.028C79.1813 77.028 80.1479 76.7573 80.9213 76.216C81.6946 75.6747 82.2263 74.9013 82.5163 73.896H85.3583C84.9329 75.52 84.0823 76.825 82.8063 77.811C81.5303 78.7777 79.9353 79.261 78.0213 79.261C76.5133 79.261 75.1696 78.9227 73.9903 78.246C72.8303 77.5693 71.9216 76.6123 71.2643 75.375C70.6069 74.1377 70.2783 72.6877 70.2783 71.025ZM87.8935 70.996C87.8935 69.372 88.2222 67.951 88.8795 66.733C89.5368 65.4957 90.4358 64.5387 91.5765 63.862C92.7365 63.1853 94.0222 62.847 95.4335 62.847C96.8255 62.847 98.0338 63.1467 99.0585 63.746C100.083 64.3453 100.847 65.0993 101.349 66.008V63.108H104.017V79H101.349V76.042C100.827 76.97 100.044 77.7433 99.0005 78.362C97.9758 78.9613 96.7772 79.261 95.4045 79.261C93.9932 79.261 92.7172 78.913 91.5765 78.217C90.4358 77.521 89.5368 76.5447 88.8795 75.288C88.2222 74.0313 87.8935 72.6007 87.8935 70.996ZM101.349 71.025C101.349 69.8263 101.108 68.7823 100.624 67.893C100.141 67.0037 99.4838 66.327 98.6525 65.863C97.8405 65.3797 96.9415 65.138 95.9555 65.138C94.9695 65.138 94.0705 65.37 93.2585 65.834C92.4465 66.298 91.7988 66.9747 91.3155 67.864C90.8322 68.7533 90.5905 69.7973 90.5905 70.996C90.5905 72.214 90.8322 73.2773 91.3155 74.186C91.7988 75.0753 92.4465 75.7617 93.2585 76.245C94.0705 76.709 94.9695 76.941 95.9555 76.941C96.9415 76.941 97.8405 76.709 98.6525 76.245C99.4838 75.7617 100.141 75.0753 100.624 74.186C101.108 73.2773 101.349 72.2237 101.349 71.025ZM116.22 62.818C118.153 62.818 119.719 63.4077 120.918 64.587C122.117 65.747 122.716 67.429 122.716 69.633V79H120.106V70.01C120.106 68.4247 119.71 67.2163 118.917 66.385C118.124 65.5343 117.042 65.109 115.669 65.109C114.277 65.109 113.165 65.544 112.334 66.414C111.522 67.284 111.116 68.5503 111.116 70.213V79H108.477V63.108H111.116V65.37C111.638 64.558 112.344 63.9297 113.233 63.485C114.142 63.0403 115.137 62.818 116.22 62.818ZM137.977 65.283V74.65C137.977 75.4233 138.142 75.9743 138.47 76.303C138.799 76.6123 139.369 76.767 140.181 76.767H142.124V79H139.746C138.277 79 137.175 78.6617 136.44 77.985C135.706 77.3083 135.338 76.1967 135.338 74.65V65.283H133.279V63.108H135.338V59.106H137.977V63.108H142.124V65.283H137.977ZM147.961 65.689C148.425 64.7803 149.082 64.0747 149.933 63.572C150.803 63.0693 151.857 62.818 153.094 62.818V65.544H152.398C149.44 65.544 147.961 67.1487 147.961 70.358V79H145.322V63.108H147.961V65.689ZM155.154 70.996C155.154 69.372 155.483 67.951 156.14 66.733C156.798 65.4957 157.697 64.5387 158.837 63.862C159.997 63.1853 161.283 62.847 162.694 62.847C164.086 62.847 165.295 63.1467 166.319 63.746C167.344 64.3453 168.108 65.0993 168.61 66.008V63.108H171.278V79H168.61V76.042C168.088 76.97 167.305 77.7433 166.261 78.362C165.237 78.9613 164.038 79.261 162.665 79.261C161.254 79.261 159.978 78.913 158.837 78.217C157.697 77.521 156.798 76.5447 156.14 75.288C155.483 74.0313 155.154 72.6007 155.154 70.996ZM168.61 71.025C168.61 69.8263 168.369 68.7823 167.885 67.893C167.402 67.0037 166.745 66.327 165.913 65.863C165.101 65.3797 164.202 65.138 163.216 65.138C162.23 65.138 161.331 65.37 160.519 65.834C159.707 66.298 159.06 66.9747 158.576 67.864C158.093 68.7533 157.851 69.7973 157.851 70.996C157.851 72.214 158.093 73.2773 158.576 74.186C159.06 75.0753 159.707 75.7617 160.519 76.245C161.331 76.709 162.23 76.941 163.216 76.941C164.202 76.941 165.101 76.709 165.913 76.245C166.745 75.7617 167.402 75.0753 167.885 74.186C168.369 73.2773 168.61 72.2237 168.61 71.025ZM183.481 62.818C185.414 62.818 186.98 63.4077 188.179 64.587C189.378 65.747 189.977 67.429 189.977 69.633V79H187.367V70.01C187.367 68.4247 186.971 67.2163 186.178 66.385C185.385 65.5343 184.303 65.109 182.93 65.109C181.538 65.109 180.426 65.544 179.595 66.414C178.783 67.284 178.377 68.5503 178.377 70.213V79H175.738V63.108H178.377V65.37C178.899 64.558 179.605 63.9297 180.494 63.485C181.403 63.0403 182.398 62.818 183.481 62.818ZM199.914 79.261C198.696 79.261 197.603 79.058 196.637 78.652C195.67 78.2267 194.906 77.6467 194.346 76.912C193.785 76.158 193.476 75.2977 193.418 74.331H196.144C196.221 75.1237 196.588 75.7713 197.246 76.274C197.922 76.7767 198.802 77.028 199.885 77.028C200.89 77.028 201.683 76.8057 202.263 76.361C202.843 75.9163 203.133 75.3557 203.133 74.679C203.133 73.983 202.823 73.4707 202.205 73.142C201.586 72.794 200.629 72.4557 199.334 72.127C198.154 71.8177 197.188 71.5083 196.434 71.199C195.699 70.8703 195.061 70.3967 194.52 69.778C193.998 69.14 193.737 68.3087 193.737 67.284C193.737 66.472 193.978 65.7277 194.462 65.051C194.945 64.3743 195.631 63.8427 196.521 63.456C197.41 63.05 198.425 62.847 199.566 62.847C201.325 62.847 202.746 63.2917 203.829 64.181C204.911 65.0703 205.491 66.2883 205.569 67.835H202.93C202.872 67.0037 202.533 66.3367 201.915 65.834C201.315 65.3313 200.503 65.08 199.479 65.08C198.531 65.08 197.777 65.283 197.217 65.689C196.656 66.095 196.376 66.6267 196.376 67.284C196.376 67.806 196.54 68.241 196.869 68.589C197.217 68.9177 197.642 69.1883 198.145 69.401C198.667 69.5943 199.382 69.8167 200.291 70.068C201.431 70.3773 202.359 70.6867 203.075 70.996C203.79 71.286 204.399 71.7307 204.902 72.33C205.424 72.9293 205.694 73.7123 205.714 74.679C205.714 75.549 205.472 76.332 204.989 77.028C204.505 77.724 203.819 78.275 202.93 78.681C202.06 79.0677 201.054 79.261 199.914 79.261ZM215.906 65.283H212.571V79H209.932V65.283H207.873V63.108H209.932V61.977C209.932 60.1983 210.386 58.903 211.295 58.091C212.223 57.2597 213.702 56.844 215.732 56.844V59.048C214.572 59.048 213.75 59.28 213.267 59.744C212.803 60.1887 212.571 60.933 212.571 61.977V63.108H215.906V65.283ZM233.483 70.445C233.483 70.9477 233.454 71.4793 233.396 72.04H220.694C220.791 73.606 221.322 74.8337 222.289 75.723C223.275 76.593 224.464 77.028 225.856 77.028C226.997 77.028 227.944 76.767 228.698 76.245C229.471 75.7037 230.013 74.9883 230.322 74.099H233.164C232.739 75.6263 231.888 76.8733 230.612 77.84C229.336 78.7873 227.751 79.261 225.856 79.261C224.348 79.261 222.995 78.9227 221.796 78.246C220.617 77.5693 219.689 76.6123 219.012 75.375C218.335 74.1183 217.997 72.6683 217.997 71.025C217.997 69.3817 218.326 67.9413 218.983 66.704C219.64 65.4667 220.559 64.5193 221.738 63.862C222.937 63.1853 224.309 62.847 225.856 62.847C227.364 62.847 228.698 63.1757 229.858 63.833C231.018 64.4903 231.907 65.399 232.526 66.559C233.164 67.6997 233.483 68.995 233.483 70.445ZM230.757 69.894C230.757 68.8887 230.535 68.0283 230.09 67.313C229.645 66.5783 229.036 66.0273 228.263 65.66C227.509 65.2733 226.668 65.08 225.74 65.08C224.406 65.08 223.265 65.5053 222.318 66.356C221.39 67.2067 220.858 68.386 220.723 69.894H230.757ZM239.605 65.689C240.069 64.7803 240.727 64.0747 241.577 63.572C242.447 63.0693 243.501 62.818 244.738 62.818V65.544H244.042C241.084 65.544 239.605 67.1487 239.605 70.358V79H236.966V63.108H239.605V65.689ZM274.627 62.818C275.865 62.818 276.967 63.079 277.933 63.601C278.9 64.1037 279.664 64.8673 280.224 65.892C280.785 66.9167 281.065 68.1637 281.065 69.633V79H278.455V70.01C278.455 68.4247 278.059 67.2163 277.266 66.385C276.493 65.5343 275.439 65.109 274.105 65.109C272.733 65.109 271.64 65.5537 270.828 66.443C270.016 67.313 269.61 68.5793 269.61 70.242V79H267V70.01C267 68.4247 266.604 67.2163 265.811 66.385C265.038 65.5343 263.984 65.109 262.65 65.109C261.278 65.109 260.185 65.5537 259.373 66.443C258.561 67.313 258.155 68.5793 258.155 70.242V79H255.516V63.108H258.155V65.399C258.677 64.5677 259.373 63.9297 260.243 63.485C261.133 63.0403 262.109 62.818 263.172 62.818C264.506 62.818 265.686 63.1177 266.71 63.717C267.735 64.3163 268.499 65.196 269.001 66.356C269.446 65.2347 270.181 64.3647 271.205 63.746C272.23 63.1273 273.371 62.818 274.627 62.818ZM292.325 79.261C290.836 79.261 289.483 78.9227 288.265 78.246C287.066 77.5693 286.119 76.6123 285.423 75.375C284.746 74.1183 284.408 72.6683 284.408 71.025C284.408 69.401 284.756 67.9703 285.452 66.733C286.167 65.4763 287.134 64.5193 288.352 63.862C289.57 63.1853 290.933 62.847 292.441 62.847C293.949 62.847 295.312 63.1853 296.53 63.862C297.748 64.5193 298.705 65.4667 299.401 66.704C300.116 67.9413 300.474 69.3817 300.474 71.025C300.474 72.6683 300.107 74.1183 299.372 75.375C298.657 76.6123 297.68 77.5693 296.443 78.246C295.206 78.9227 293.833 79.261 292.325 79.261ZM292.325 76.941C293.272 76.941 294.162 76.7187 294.993 76.274C295.824 75.8293 296.491 75.1623 296.994 74.273C297.516 73.3837 297.777 72.301 297.777 71.025C297.777 69.749 297.526 68.6663 297.023 67.777C296.52 66.8877 295.863 66.2303 295.051 65.805C294.239 65.3603 293.359 65.138 292.412 65.138C291.445 65.138 290.556 65.3603 289.744 65.805C288.951 66.2303 288.313 66.8877 287.83 67.777C287.347 68.6663 287.105 69.749 287.105 71.025C287.105 72.3203 287.337 73.4127 287.801 74.302C288.284 75.1913 288.922 75.8583 289.715 76.303C290.508 76.7283 291.378 76.941 292.325 76.941ZM311.687 62.818C313.62 62.818 315.186 63.4077 316.385 64.587C317.584 65.747 318.183 67.429 318.183 69.633V79H315.573V70.01C315.573 68.4247 315.177 67.2163 314.384 66.385C313.591 65.5343 312.509 65.109 311.136 65.109C309.744 65.109 308.632 65.544 307.801 66.414C306.989 67.284 306.583 68.5503 306.583 70.213V79H303.944V63.108H306.583V65.37C307.105 64.558 307.811 63.9297 308.7 63.485C309.609 63.0403 310.604 62.818 311.687 62.818ZM336.994 70.445C336.994 70.9477 336.965 71.4793 336.907 72.04H324.205C324.301 73.606 324.833 74.8337 325.8 75.723C326.786 76.593 327.975 77.028 329.367 77.028C330.507 77.028 331.455 76.767 332.209 76.245C332.982 75.7037 333.523 74.9883 333.833 74.099H336.675C336.249 75.6263 335.399 76.8733 334.123 77.84C332.847 78.7873 331.261 79.261 329.367 79.261C327.859 79.261 326.505 78.9227 325.307 78.246C324.127 77.5693 323.199 76.6123 322.523 75.375C321.846 74.1183 321.508 72.6683 321.508 71.025C321.508 69.3817 321.836 67.9413 322.494 66.704C323.151 65.4667 324.069 64.5193 325.249 63.862C326.447 63.1853 327.82 62.847 329.367 62.847C330.875 62.847 332.209 63.1757 333.369 63.833C334.529 64.4903 335.418 65.399 336.037 66.559C336.675 67.6997 336.994 68.995 336.994 70.445ZM334.268 69.894C334.268 68.8887 334.045 68.0283 333.601 67.313C333.156 66.5783 332.547 66.0273 331.774 65.66C331.02 65.2733 330.179 65.08 329.251 65.08C327.917 65.08 326.776 65.5053 325.829 66.356C324.901 67.2067 324.369 68.386 324.234 69.894H334.268ZM354.165 63.108L344.595 86.482H341.869L345.001 78.826L338.592 63.108H341.521L346.509 75.984L351.439 63.108H354.165ZM371.016 65.283H367.681V79H365.042V65.283H362.983V63.108H365.042V61.977C365.042 60.1983 365.497 58.903 366.405 58.091C367.333 57.2597 368.812 56.844 370.842 56.844V59.048C369.682 59.048 368.861 59.28 368.377 59.744C367.913 60.1887 367.681 60.933 367.681 61.977V63.108H371.016V65.283ZM376.732 65.689C377.196 64.7803 377.854 64.0747 378.704 63.572C379.574 63.0693 380.628 62.818 381.865 62.818V65.544H381.169C378.211 65.544 376.732 67.1487 376.732 70.358V79H374.093V63.108H376.732V65.689ZM391.843 79.261C390.354 79.261 389.001 78.9227 387.783 78.246C386.584 77.5693 385.637 76.6123 384.941 75.375C384.264 74.1183 383.926 72.6683 383.926 71.025C383.926 69.401 384.274 67.9703 384.97 66.733C385.685 65.4763 386.652 64.5193 387.87 63.862C389.088 63.1853 390.451 62.847 391.959 62.847C393.467 62.847 394.83 63.1853 396.048 63.862C397.266 64.5193 398.223 65.4667 398.919 66.704C399.634 67.9413 399.992 69.3817 399.992 71.025C399.992 72.6683 399.624 74.1183 398.89 75.375C398.174 76.6123 397.198 77.5693 395.961 78.246C394.723 78.9227 393.351 79.261 391.843 79.261ZM391.843 76.941C392.79 76.941 393.679 76.7187 394.511 76.274C395.342 75.8293 396.009 75.1623 396.512 74.273C397.034 73.3837 397.295 72.301 397.295 71.025C397.295 69.749 397.043 68.6663 396.541 67.777C396.038 66.8877 395.381 66.2303 394.569 65.805C393.757 65.3603 392.877 65.138 391.93 65.138C390.963 65.138 390.074 65.3603 389.262 65.805C388.469 66.2303 387.831 66.8877 387.348 67.777C386.864 68.6663 386.623 69.749 386.623 71.025C386.623 72.3203 386.855 73.4127 387.319 74.302C387.802 75.1913 388.44 75.8583 389.233 76.303C390.025 76.7283 390.895 76.941 391.843 76.941ZM422.573 62.818C423.81 62.818 424.912 63.079 425.879 63.601C426.845 64.1037 427.609 64.8673 428.17 65.892C428.73 66.9167 429.011 68.1637 429.011 69.633V79H426.401V70.01C426.401 68.4247 426.004 67.2163 425.212 66.385C424.438 65.5343 423.385 65.109 422.051 65.109C420.678 65.109 419.586 65.5537 418.774 66.443C417.962 67.313 417.556 68.5793 417.556 70.242V79H414.946V70.01C414.946 68.4247 414.549 67.2163 413.757 66.385C412.983 65.5343 411.93 65.109 410.596 65.109C409.223 65.109 408.131 65.5537 407.319 66.443C406.507 67.313 406.101 68.5793 406.101 70.242V79H403.462V63.108H406.101V65.399C406.623 64.5677 407.319 63.9297 408.189 63.485C409.078 63.0403 410.054 62.818 411.118 62.818C412.452 62.818 413.631 63.1177 414.656 63.717C415.68 64.3163 416.444 65.196 416.947 66.356C417.391 65.2347 418.126 64.3647 419.151 63.746C420.175 63.1273 421.316 62.818 422.573 62.818ZM454.759 63.108L445.189 86.482H442.463L445.595 78.826L439.186 63.108H442.115L447.103 75.984L452.033 63.108H454.759ZM464.343 79.261C462.854 79.261 461.501 78.9227 460.283 78.246C459.084 77.5693 458.137 76.6123 457.441 75.375C456.764 74.1183 456.426 72.6683 456.426 71.025C456.426 69.401 456.774 67.9703 457.47 66.733C458.185 65.4763 459.152 64.5193 460.37 63.862C461.588 63.1853 462.951 62.847 464.459 62.847C465.967 62.847 467.33 63.1853 468.548 63.862C469.766 64.5193 470.723 65.4667 471.419 66.704C472.134 67.9413 472.492 69.3817 472.492 71.025C472.492 72.6683 472.124 74.1183 471.39 75.375C470.674 76.6123 469.698 77.5693 468.461 78.246C467.223 78.9227 465.851 79.261 464.343 79.261ZM464.343 76.941C465.29 76.941 466.179 76.7187 467.011 76.274C467.842 75.8293 468.509 75.1623 469.012 74.273C469.534 73.3837 469.795 72.301 469.795 71.025C469.795 69.749 469.543 68.6663 469.041 67.777C468.538 66.8877 467.881 66.2303 467.069 65.805C466.257 65.3603 465.377 65.138 464.43 65.138C463.463 65.138 462.574 65.3603 461.762 65.805C460.969 66.2303 460.331 66.8877 459.848 67.777C459.364 68.6663 459.123 69.749 459.123 71.025C459.123 72.3203 459.355 73.4127 459.819 74.302C460.302 75.1913 460.94 75.8583 461.733 76.303C462.525 76.7283 463.395 76.941 464.343 76.941ZM490.056 63.108V79H487.417V76.651C486.914 77.463 486.208 78.101 485.3 78.565C484.41 79.0097 483.424 79.232 482.342 79.232C481.104 79.232 479.993 78.9807 479.007 78.478C478.021 77.956 477.238 77.1827 476.658 76.158C476.097 75.1333 475.817 73.8863 475.817 72.417V63.108H478.427V72.069C478.427 73.635 478.823 74.8433 479.616 75.694C480.408 76.5253 481.491 76.941 482.864 76.941C484.275 76.941 485.387 76.506 486.199 75.636C487.011 74.766 487.417 73.4997 487.417 71.837V63.108H490.056ZM497.15 65.689C497.614 64.7803 498.272 64.0747 499.122 63.572C499.992 63.0693 501.046 62.818 502.283 62.818V65.544H501.587C498.629 65.544 497.15 67.1487 497.15 70.358V79H494.511V63.108H497.15V65.689ZM512.075 70.996C512.075 69.372 512.404 67.951 513.061 66.733C513.718 65.4957 514.617 64.5387 515.758 63.862C516.918 63.1853 518.204 62.847 519.615 62.847C521.007 62.847 522.215 63.1467 523.24 63.746C524.265 64.3453 525.028 65.0993 525.531 66.008V63.108H528.199V79H525.531V76.042C525.009 76.97 524.226 77.7433 523.182 78.362C522.157 78.9613 520.959 79.261 519.586 79.261C518.175 79.261 516.899 78.913 515.758 78.217C514.617 77.521 513.718 76.5447 513.061 75.288C512.404 74.0313 512.075 72.6007 512.075 70.996ZM525.531 71.025C525.531 69.8263 525.289 68.7823 524.806 67.893C524.323 67.0037 523.665 66.327 522.834 65.863C522.022 65.3797 521.123 65.138 520.137 65.138C519.151 65.138 518.252 65.37 517.44 65.834C516.628 66.298 515.98 66.9747 515.497 67.864C515.014 68.7533 514.772 69.7973 514.772 70.996C514.772 72.214 515.014 73.2773 515.497 74.186C515.98 75.0753 516.628 75.7617 517.44 76.245C518.252 76.709 519.151 76.941 520.137 76.941C521.123 76.941 522.022 76.709 522.834 76.245C523.665 75.7617 524.323 75.0753 524.806 74.186C525.289 73.2773 525.531 72.2237 525.531 71.025ZM531.673 71.025C531.673 69.3817 532.001 67.951 532.659 66.733C533.316 65.4957 534.225 64.5387 535.385 63.862C536.564 63.1853 537.908 62.847 539.416 62.847C541.368 62.847 542.973 63.3207 544.23 64.268C545.506 65.2153 546.347 66.53 546.753 68.212H543.911C543.64 67.2453 543.108 66.4817 542.316 65.921C541.542 65.3603 540.576 65.08 539.416 65.08C537.908 65.08 536.69 65.602 535.762 66.646C534.834 67.6707 534.37 69.1303 534.37 71.025C534.37 72.939 534.834 74.418 535.762 75.462C536.69 76.506 537.908 77.028 539.416 77.028C540.576 77.028 541.542 76.7573 542.316 76.216C543.089 75.6747 543.621 74.9013 543.911 73.896H546.753C546.327 75.52 545.477 76.825 544.201 77.811C542.925 78.7777 541.33 79.261 539.416 79.261C537.908 79.261 536.564 78.9227 535.385 78.246C534.225 77.5693 533.316 76.6123 532.659 75.375C532.001 74.1377 531.673 72.6877 531.673 71.025ZM549.288 71.025C549.288 69.3817 549.617 67.951 550.274 66.733C550.931 65.4957 551.84 64.5387 553 63.862C554.179 63.1853 555.523 62.847 557.031 62.847C558.984 62.847 560.588 63.3207 561.845 64.268C563.121 65.2153 563.962 66.53 564.368 68.212H561.526C561.255 67.2453 560.724 66.4817 559.931 65.921C559.158 65.3603 558.191 65.08 557.031 65.08C555.523 65.08 554.305 65.602 553.377 66.646C552.449 67.6707 551.985 69.1303 551.985 71.025C551.985 72.939 552.449 74.418 553.377 75.462C554.305 76.506 555.523 77.028 557.031 77.028C558.191 77.028 559.158 76.7573 559.931 76.216C560.704 75.6747 561.236 74.9013 561.526 73.896H564.368C563.943 75.52 563.092 76.825 561.816 77.811C560.54 78.7777 558.945 79.261 557.031 79.261C555.523 79.261 554.179 78.9227 553 78.246C551.84 77.5693 550.931 76.6123 550.274 75.375C549.617 74.1377 549.288 72.6877 549.288 71.025ZM574.82 79.261C573.332 79.261 571.978 78.9227 570.76 78.246C569.562 77.5693 568.614 76.6123 567.918 75.375C567.242 74.1183 566.903 72.6683 566.903 71.025C566.903 69.401 567.251 67.9703 567.947 66.733C568.663 65.4763 569.629 64.5193 570.847 63.862C572.065 63.1853 573.428 62.847 574.936 62.847C576.444 62.847 577.807 63.1853 579.025 63.862C580.243 64.5193 581.2 65.4667 581.896 66.704C582.612 67.9413 582.969 69.3817 582.969 71.025C582.969 72.6683 582.602 74.1183 581.867 75.375C581.152 76.6123 580.176 77.5693 578.938 78.246C577.701 78.9227 576.328 79.261 574.82 79.261ZM574.82 76.941C575.768 76.941 576.657 76.7187 577.488 76.274C578.32 75.8293 578.987 75.1623 579.489 74.273C580.011 73.3837 580.272 72.301 580.272 71.025C580.272 69.749 580.021 68.6663 579.518 67.777C579.016 66.8877 578.358 66.2303 577.546 65.805C576.734 65.3603 575.855 65.138 574.907 65.138C573.941 65.138 573.051 65.3603 572.239 65.805C571.447 66.2303 570.809 66.8877 570.325 67.777C569.842 68.6663 569.6 69.749 569.6 71.025C569.6 72.3203 569.832 73.4127 570.296 74.302C570.78 75.1913 571.418 75.8583 572.21 76.303C573.003 76.7283 573.873 76.941 574.82 76.941ZM600.533 63.108V79H597.894V76.651C597.391 77.463 596.686 78.101 595.777 78.565C594.888 79.0097 593.902 79.232 592.819 79.232C591.582 79.232 590.47 78.9807 589.484 78.478C588.498 77.956 587.715 77.1827 587.135 76.158C586.574 75.1333 586.294 73.8863 586.294 72.417V63.108H588.904V72.069C588.904 73.635 589.3 74.8433 590.093 75.694C590.886 76.5253 591.968 76.941 593.341 76.941C594.752 76.941 595.864 76.506 596.676 75.636C597.488 74.766 597.894 73.4997 597.894 71.837V63.108H600.533ZM612.732 62.818C614.665 62.818 616.231 63.4077 617.43 64.587C618.629 65.747 619.228 67.429 619.228 69.633V79H616.618V70.01C616.618 68.4247 616.222 67.2163 615.429 66.385C614.636 65.5343 613.554 65.109 612.181 65.109C610.789 65.109 609.677 65.544 608.846 66.414C608.034 67.284 607.628 68.5503 607.628 70.213V79H604.989V63.108H607.628V65.37C608.15 64.558 608.856 63.9297 609.745 63.485C610.654 63.0403 611.649 62.818 612.732 62.818ZM626.758 65.283V74.65C626.758 75.4233 626.922 75.9743 627.251 76.303C627.579 76.6123 628.15 76.767 628.962 76.767H630.905V79H628.527C627.057 79 625.955 78.6617 625.221 77.985C624.486 77.3083 624.119 76.1967 624.119 74.65V65.283H622.06V63.108H624.119V59.106H626.758V63.108H630.905V65.283H626.758ZM645.053 65.283V74.65C645.053 75.4233 645.217 75.9743 645.546 76.303C645.874 76.6123 646.445 76.767 647.257 76.767H649.2V79H646.822C645.352 79 644.25 78.6617 643.516 77.985C642.781 77.3083 642.414 76.1967 642.414 74.65V65.283H640.355V63.108H642.414V59.106H645.053V63.108H649.2V65.283H645.053ZM659.328 79.261C657.839 79.261 656.486 78.9227 655.268 78.246C654.069 77.5693 653.122 76.6123 652.426 75.375C651.749 74.1183 651.411 72.6683 651.411 71.025C651.411 69.401 651.759 67.9703 652.455 66.733C653.17 65.4763 654.137 64.5193 655.355 63.862C656.573 63.1853 657.936 62.847 659.444 62.847C660.952 62.847 662.315 63.1853 663.533 63.862C664.751 64.5193 665.708 65.4667 666.404 66.704C667.119 67.9413 667.477 69.3817 667.477 71.025C667.477 72.6683 667.11 74.1183 666.375 75.375C665.66 76.6123 664.683 77.5693 663.446 78.246C662.209 78.9227 660.836 79.261 659.328 79.261ZM659.328 76.941C660.275 76.941 661.165 76.7187 661.996 76.274C662.827 75.8293 663.494 75.1623 663.997 74.273C664.519 73.3837 664.78 72.301 664.78 71.025C664.78 69.749 664.529 68.6663 664.026 67.777C663.523 66.8877 662.866 66.2303 662.054 65.805C661.242 65.3603 660.362 65.138 659.415 65.138C658.448 65.138 657.559 65.3603 656.747 65.805C655.954 66.2303 655.316 66.8877 654.833 67.777C654.35 68.6663 654.108 69.749 654.108 71.025C654.108 72.3203 654.34 73.4127 654.804 74.302C655.287 75.1913 655.925 75.8583 656.718 76.303C657.511 76.7283 658.381 76.941 659.328 76.941ZM0.247 114.996C0.247 113.372 0.575667 111.951 1.233 110.733C1.89033 109.496 2.78933 108.539 3.93 107.862C5.09 107.185 6.37567 106.847 7.787 106.847C9.179 106.847 10.3873 107.147 11.412 107.746C12.4367 108.345 13.2003 109.099 13.703 110.008V107.108H16.371V123H13.703V120.042C13.181 120.97 12.398 121.743 11.354 122.362C10.3293 122.961 9.13067 123.261 7.758 123.261C6.34667 123.261 5.07067 122.913 3.93 122.217C2.78933 121.521 1.89033 120.545 1.233 119.288C0.575667 118.031 0.247 116.601 0.247 114.996ZM13.703 115.025C13.703 113.826 13.4613 112.782 12.978 111.893C12.4947 111.004 11.8373 110.327 11.006 109.863C10.194 109.38 9.295 109.138 8.309 109.138C7.323 109.138 6.424 109.37 5.612 109.834C4.8 110.298 4.15233 110.975 3.669 111.864C3.18567 112.753 2.944 113.797 2.944 114.996C2.944 116.214 3.18567 117.277 3.669 118.186C4.15233 119.075 4.8 119.762 5.612 120.245C6.424 120.709 7.323 120.941 8.309 120.941C9.295 120.941 10.194 120.709 11.006 120.245C11.8373 119.762 12.4947 119.075 12.978 118.186C13.4613 117.277 13.703 116.224 13.703 115.025ZM28.5737 106.818C30.507 106.818 32.073 107.408 33.2717 108.587C34.4703 109.747 35.0697 111.429 35.0697 113.633V123H32.4597V114.01C32.4597 112.425 32.0633 111.216 31.2707 110.385C30.478 109.534 29.3953 109.109 28.0227 109.109C26.6307 109.109 25.519 109.544 24.6877 110.414C23.8757 111.284 23.4697 112.55 23.4697 114.213V123H20.8307V107.108H23.4697V109.37C23.9917 108.558 24.6973 107.93 25.5867 107.485C26.4953 107.04 27.491 106.818 28.5737 106.818ZM46.3115 123.261C44.8228 123.261 43.4695 122.923 42.2515 122.246C41.0528 121.569 40.1055 120.612 39.4095 119.375C38.7328 118.118 38.3945 116.668 38.3945 115.025C38.3945 113.401 38.7425 111.97 39.4385 110.733C40.1538 109.476 41.1205 108.519 42.3385 107.862C43.5565 107.185 44.9195 106.847 46.4275 106.847C47.9355 106.847 49.2985 107.185 50.5165 107.862C51.7345 108.519 52.6915 109.467 53.3875 110.704C54.1028 111.941 54.4605 113.382 54.4605 115.025C54.4605 116.668 54.0931 118.118 53.3585 119.375C52.6431 120.612 51.6668 121.569 50.4295 122.246C49.1921 122.923 47.8195 123.261 46.3115 123.261ZM46.3115 120.941C47.2588 120.941 48.1481 120.719 48.9795 120.274C49.8108 119.829 50.4778 119.162 50.9805 118.273C51.5025 117.384 51.7635 116.301 51.7635 115.025C51.7635 113.749 51.5121 112.666 51.0095 111.777C50.5068 110.888 49.8495 110.23 49.0375 109.805C48.2255 109.36 47.3458 109.138 46.3985 109.138C45.4318 109.138 44.5425 109.36 43.7305 109.805C42.9378 110.23 42.2998 110.888 41.8165 111.777C41.3331 112.666 41.0915 113.749 41.0915 115.025C41.0915 116.32 41.3235 117.413 41.7875 118.302C42.2708 119.191 42.9088 119.858 43.7015 120.303C44.4941 120.728 45.3641 120.941 46.3115 120.941ZM61.1493 109.283V118.65C61.1493 119.423 61.3136 119.974 61.6423 120.303C61.9709 120.612 62.5413 120.767 63.3533 120.767H65.2963V123H62.9183C61.4489 123 60.3469 122.662 59.6123 121.985C58.8776 121.308 58.5103 120.197 58.5103 118.65V109.283H56.4513V107.108H58.5103V103.106H61.1493V107.108H65.2963V109.283H61.1493ZM76.3817 106.818C77.5804 106.818 78.6631 107.079 79.6297 107.601C80.5964 108.104 81.3504 108.867 81.8917 109.892C82.4524 110.917 82.7327 112.164 82.7327 113.633V123H80.1227V114.01C80.1227 112.425 79.7264 111.216 78.9337 110.385C78.1411 109.534 77.0584 109.109 75.6857 109.109C74.2937 109.109 73.1821 109.544 72.3507 110.414C71.5387 111.284 71.1327 112.55 71.1327 114.213V123H68.4937V101.54H71.1327V109.37C71.6547 108.558 72.3701 107.93 73.2787 107.485C74.2067 107.04 75.2411 106.818 76.3817 106.818ZM101.544 114.445C101.544 114.948 101.515 115.479 101.457 116.04H88.7545C88.8512 117.606 89.3829 118.834 90.3495 119.723C91.3355 120.593 92.5245 121.028 93.9165 121.028C95.0572 121.028 96.0045 120.767 96.7585 120.245C97.5319 119.704 98.0732 118.988 98.3825 118.099H101.225C100.799 119.626 99.9485 120.873 98.6725 121.84C97.3965 122.787 95.8112 123.261 93.9165 123.261C92.4085 123.261 91.0552 122.923 89.8565 122.246C88.6772 121.569 87.7492 120.612 87.0725 119.375C86.3959 118.118 86.0575 116.668 86.0575 115.025C86.0575 113.382 86.3862 111.941 87.0435 110.704C87.7009 109.467 88.6192 108.519 89.7985 107.862C90.9972 107.185 92.3699 106.847 93.9165 106.847C95.4245 106.847 96.7585 107.176 97.9185 107.833C99.0785 108.49 99.9679 109.399 100.587 110.559C101.225 111.7 101.544 112.995 101.544 114.445ZM98.8175 113.894C98.8175 112.889 98.5952 112.028 98.1505 111.313C97.7059 110.578 97.0969 110.027 96.3235 109.66C95.5695 109.273 94.7285 109.08 93.8005 109.08C92.4665 109.08 91.3259 109.505 90.3785 110.356C89.4505 111.207 88.9189 112.386 88.7835 113.894H98.8175ZM107.666 109.689C108.13 108.78 108.787 108.075 109.638 107.572C110.508 107.069 111.562 106.818 112.799 106.818V109.544H112.103C109.145 109.544 107.666 111.149 107.666 114.358V123H105.027V107.108H107.666V109.689ZM122.591 114.996C122.591 113.372 122.919 111.951 123.577 110.733C124.234 109.496 125.133 108.539 126.274 107.862C127.434 107.185 128.719 106.847 130.131 106.847C131.523 106.847 132.731 107.147 133.756 107.746C134.78 108.345 135.544 109.099 136.047 110.008V107.108H138.715V123H136.047V120.042C135.525 120.97 134.742 121.743 133.698 122.362C132.673 122.961 131.474 123.261 130.102 123.261C128.69 123.261 127.414 122.913 126.274 122.217C125.133 121.521 124.234 120.545 123.577 119.288C122.919 118.031 122.591 116.601 122.591 114.996ZM136.047 115.025C136.047 113.826 135.805 112.782 135.322 111.893C134.838 111.004 134.181 110.327 133.35 109.863C132.538 109.38 131.639 109.138 130.653 109.138C129.667 109.138 128.768 109.37 127.956 109.834C127.144 110.298 126.496 110.975 126.013 111.864C125.529 112.753 125.288 113.797 125.288 114.996C125.288 116.214 125.529 117.277 126.013 118.186C126.496 119.075 127.144 119.762 127.956 120.245C128.768 120.709 129.667 120.941 130.653 120.941C131.639 120.941 132.538 120.709 133.35 120.245C134.181 119.762 134.838 119.075 135.322 118.186C135.805 117.277 136.047 116.224 136.047 115.025ZM142.188 115.025C142.188 113.382 142.517 111.951 143.174 110.733C143.832 109.496 144.74 108.539 145.9 107.862C147.08 107.185 148.423 106.847 149.931 106.847C151.884 106.847 153.489 107.321 154.745 108.268C156.021 109.215 156.862 110.53 157.268 112.212H154.426C154.156 111.245 153.624 110.482 152.831 109.921C152.058 109.36 151.091 109.08 149.931 109.08C148.423 109.08 147.205 109.602 146.277 110.646C145.349 111.671 144.885 113.13 144.885 115.025C144.885 116.939 145.349 118.418 146.277 119.462C147.205 120.506 148.423 121.028 149.931 121.028C151.091 121.028 152.058 120.757 152.831 120.216C153.605 119.675 154.136 118.901 154.426 117.896H157.268C156.843 119.52 155.992 120.825 154.716 121.811C153.44 122.778 151.845 123.261 149.931 123.261C148.423 123.261 147.08 122.923 145.9 122.246C144.74 121.569 143.832 120.612 143.174 119.375C142.517 118.138 142.188 116.688 142.188 115.025ZM159.804 115.025C159.804 113.382 160.132 111.951 160.79 110.733C161.447 109.496 162.356 108.539 163.516 107.862C164.695 107.185 166.039 106.847 167.547 106.847C169.499 106.847 171.104 107.321 172.361 108.268C173.637 109.215 174.478 110.53 174.884 112.212H172.042C171.771 111.245 171.239 110.482 170.447 109.921C169.673 109.36 168.707 109.08 167.547 109.08C166.039 109.08 164.821 109.602 163.893 110.646C162.965 111.671 162.501 113.13 162.501 115.025C162.501 116.939 162.965 118.418 163.893 119.462C164.821 120.506 166.039 121.028 167.547 121.028C168.707 121.028 169.673 120.757 170.447 120.216C171.22 119.675 171.752 118.901 172.042 117.896H174.884C174.458 119.52 173.608 120.825 172.332 121.811C171.056 122.778 169.461 123.261 167.547 123.261C166.039 123.261 164.695 122.923 163.516 122.246C162.356 121.569 161.447 120.612 160.79 119.375C160.132 118.138 159.804 116.688 159.804 115.025ZM185.336 123.261C183.847 123.261 182.494 122.923 181.276 122.246C180.077 121.569 179.13 120.612 178.434 119.375C177.757 118.118 177.419 116.668 177.419 115.025C177.419 113.401 177.767 111.97 178.463 110.733C179.178 109.476 180.145 108.519 181.363 107.862C182.581 107.185 183.944 106.847 185.452 106.847C186.96 106.847 188.323 107.185 189.541 107.862C190.759 108.519 191.716 109.467 192.412 110.704C193.127 111.941 193.485 113.382 193.485 115.025C193.485 116.668 193.118 118.118 192.383 119.375C191.668 120.612 190.691 121.569 189.454 122.246C188.217 122.923 186.844 123.261 185.336 123.261ZM185.336 120.941C186.283 120.941 187.173 120.719 188.004 120.274C188.835 119.829 189.502 119.162 190.005 118.273C190.527 117.384 190.788 116.301 190.788 115.025C190.788 113.749 190.537 112.666 190.034 111.777C189.531 110.888 188.874 110.23 188.062 109.805C187.25 109.36 186.37 109.138 185.423 109.138C184.456 109.138 183.567 109.36 182.755 109.805C181.962 110.23 181.324 110.888 180.841 111.777C180.358 112.666 180.116 113.749 180.116 115.025C180.116 116.32 180.348 117.413 180.812 118.302C181.295 119.191 181.933 119.858 182.726 120.303C183.519 120.728 184.389 120.941 185.336 120.941ZM211.049 107.108V123H208.41V120.651C207.907 121.463 207.201 122.101 206.293 122.565C205.403 123.01 204.417 123.232 203.335 123.232C202.097 123.232 200.986 122.981 200 122.478C199.014 121.956 198.231 121.183 197.651 120.158C197.09 119.133 196.81 117.886 196.81 116.417V107.108H199.42V116.069C199.42 117.635 199.816 118.843 200.609 119.694C201.401 120.525 202.484 120.941 203.857 120.941C205.268 120.941 206.38 120.506 207.192 119.636C208.004 118.766 208.41 117.5 208.41 115.837V107.108H211.049ZM223.247 106.818C225.181 106.818 226.747 107.408 227.945 108.587C229.144 109.747 229.743 111.429 229.743 113.633V123H227.133V114.01C227.133 112.425 226.737 111.216 225.944 110.385C225.152 109.534 224.069 109.109 222.696 109.109C221.304 109.109 220.193 109.544 219.361 110.414C218.549 111.284 218.143 112.55 218.143 114.213V123H215.504V107.108H218.143V109.37C218.665 108.558 219.371 107.93 220.26 107.485C221.169 107.04 222.165 106.818 223.247 106.818ZM237.273 109.283V118.65C237.273 119.423 237.438 119.974 237.766 120.303C238.095 120.612 238.665 120.767 239.477 120.767H241.42V123H239.042C237.573 123 236.471 122.662 235.736 121.985C235.002 121.308 234.634 120.197 234.634 118.65V109.283H232.575V107.108H234.634V103.106H237.273V107.108H241.42V109.283H237.273ZM259.28 123.261C257.792 123.261 256.438 122.923 255.22 122.246C254.022 121.569 253.074 120.612 252.378 119.375C251.702 118.118 251.363 116.668 251.363 115.025C251.363 113.401 251.711 111.97 252.407 110.733C253.123 109.476 254.089 108.519 255.307 107.862C256.525 107.185 257.888 106.847 259.396 106.847C260.904 106.847 262.267 107.185 263.485 107.862C264.703 108.519 265.66 109.467 266.356 110.704C267.072 111.941 267.429 113.382 267.429 115.025C267.429 116.668 267.062 118.118 266.327 119.375C265.612 120.612 264.636 121.569 263.398 122.246C262.161 122.923 260.788 123.261 259.28 123.261ZM259.28 120.941C260.228 120.941 261.117 120.719 261.948 120.274C262.78 119.829 263.447 119.162 263.949 118.273C264.471 117.384 264.732 116.301 264.732 115.025C264.732 113.749 264.481 112.666 263.978 111.777C263.476 110.888 262.818 110.23 262.006 109.805C261.194 109.36 260.315 109.138 259.367 109.138C258.401 109.138 257.511 109.36 256.699 109.805C255.907 110.23 255.269 110.888 254.785 111.777C254.302 112.666 254.06 113.749 254.06 115.025C254.06 116.32 254.292 117.413 254.756 118.302C255.24 119.191 255.878 119.858 256.67 120.303C257.463 120.728 258.333 120.941 259.28 120.941ZM277.366 109.283H274.031V123H271.392V109.283H269.333V107.108H271.392V105.977C271.392 104.198 271.846 102.903 272.755 102.091C273.683 101.26 275.162 100.844 277.192 100.844V103.048C276.032 103.048 275.21 103.28 274.727 103.744C274.263 104.189 274.031 104.933 274.031 105.977V107.108H277.366V109.283ZM295.105 123.261C293.617 123.261 292.263 122.923 291.045 122.246C289.847 121.569 288.899 120.612 288.203 119.375C287.527 118.118 287.188 116.668 287.188 115.025C287.188 113.401 287.536 111.97 288.232 110.733C288.948 109.476 289.914 108.519 291.132 107.862C292.35 107.185 293.713 106.847 295.221 106.847C296.729 106.847 298.092 107.185 299.31 107.862C300.528 108.519 301.485 109.467 302.181 110.704C302.897 111.941 303.254 113.382 303.254 115.025C303.254 116.668 302.887 118.118 302.152 119.375C301.437 120.612 300.461 121.569 299.223 122.246C297.986 122.923 296.613 123.261 295.105 123.261ZM295.105 120.941C296.053 120.941 296.942 120.719 297.773 120.274C298.605 119.829 299.272 119.162 299.774 118.273C300.296 117.384 300.557 116.301 300.557 115.025C300.557 113.749 300.306 112.666 299.803 111.777C299.301 110.888 298.643 110.23 297.831 109.805C297.019 109.36 296.14 109.138 295.192 109.138C294.226 109.138 293.336 109.36 292.524 109.805C291.732 110.23 291.094 110.888 290.61 111.777C290.127 112.666 289.885 113.749 289.885 115.025C289.885 116.32 290.117 117.413 290.581 118.302C291.065 119.191 291.703 119.858 292.495 120.303C293.288 120.728 294.158 120.941 295.105 120.941ZM320.818 107.108V123H318.179V120.651C317.677 121.463 316.971 122.101 316.062 122.565C315.173 123.01 314.187 123.232 313.104 123.232C311.867 123.232 310.755 122.981 309.769 122.478C308.783 121.956 308 121.183 307.42 120.158C306.86 119.133 306.579 117.886 306.579 116.417V107.108H309.189V116.069C309.189 117.635 309.586 118.843 310.378 119.694C311.171 120.525 312.254 120.941 313.626 120.941C315.038 120.941 316.149 120.506 316.961 119.636C317.773 118.766 318.179 117.5 318.179 115.837V107.108H320.818ZM327.913 109.689C328.377 108.78 329.034 108.075 329.885 107.572C330.755 107.069 331.809 106.818 333.046 106.818V109.544H332.35C329.392 109.544 327.913 111.149 327.913 114.358V123H325.274V107.108H327.913V109.689ZM346.463 110.066C347.004 109.119 347.797 108.345 348.841 107.746C349.885 107.147 351.074 106.847 352.408 106.847C353.838 106.847 355.124 107.185 356.265 107.862C357.405 108.539 358.304 109.496 358.962 110.733C359.619 111.951 359.948 113.372 359.948 114.996C359.948 116.601 359.619 118.031 358.962 119.288C358.304 120.545 357.396 121.521 356.236 122.217C355.095 122.913 353.819 123.261 352.408 123.261C351.035 123.261 349.827 122.961 348.783 122.362C347.758 121.763 346.985 120.999 346.463 120.071V123H343.824V101.54H346.463V110.066ZM357.251 114.996C357.251 113.797 357.009 112.753 356.526 111.864C356.042 110.975 355.385 110.298 354.554 109.834C353.742 109.37 352.843 109.138 351.857 109.138C350.89 109.138 349.991 109.38 349.16 109.863C348.348 110.327 347.69 111.013 347.188 111.922C346.704 112.811 346.463 113.846 346.463 115.025C346.463 116.224 346.704 117.277 347.188 118.186C347.69 119.075 348.348 119.762 349.16 120.245C349.991 120.709 350.89 120.941 351.857 120.941C352.843 120.941 353.742 120.709 354.554 120.245C355.385 119.762 356.042 119.075 356.526 118.186C357.009 117.277 357.251 116.214 357.251 114.996ZM362.435 114.996C362.435 113.372 362.764 111.951 363.421 110.733C364.079 109.496 364.978 108.539 366.118 107.862C367.278 107.185 368.564 106.847 369.975 106.847C371.367 106.847 372.576 107.147 373.6 107.746C374.625 108.345 375.389 109.099 375.891 110.008V107.108H378.559V123H375.891V120.042C375.369 120.97 374.586 121.743 373.542 122.362C372.518 122.961 371.319 123.261 369.946 123.261C368.535 123.261 367.259 122.913 366.118 122.217C364.978 121.521 364.079 120.545 363.421 119.288C362.764 118.031 362.435 116.601 362.435 114.996ZM375.891 115.025C375.891 113.826 375.65 112.782 375.166 111.893C374.683 111.004 374.026 110.327 373.194 109.863C372.382 109.38 371.483 109.138 370.497 109.138C369.511 109.138 368.612 109.37 367.8 109.834C366.988 110.298 366.341 110.975 365.857 111.864C365.374 112.753 365.132 113.797 365.132 114.996C365.132 116.214 365.374 117.277 365.857 118.186C366.341 119.075 366.988 119.762 367.8 120.245C368.612 120.709 369.511 120.941 370.497 120.941C371.483 120.941 372.382 120.709 373.194 120.245C374.026 119.762 374.683 119.075 375.166 118.186C375.65 117.277 375.891 116.224 375.891 115.025ZM390.762 106.818C392.695 106.818 394.261 107.408 395.46 108.587C396.659 109.747 397.258 111.429 397.258 113.633V123H394.648V114.01C394.648 112.425 394.252 111.216 393.459 110.385C392.666 109.534 391.584 109.109 390.211 109.109C388.819 109.109 387.707 109.544 386.876 110.414C386.064 111.284 385.658 112.55 385.658 114.213V123H383.019V107.108H385.658V109.37C386.18 108.558 386.886 107.93 387.775 107.485C388.684 107.04 389.679 106.818 390.762 106.818ZM410.443 123L404.208 115.982V123H401.569V101.54H404.208V114.155L410.327 107.108H414.01L406.528 115.025L414.039 123H410.443Z" fill="black"/>
</svg>
