<svg width="4223" height="683" viewBox="0 0 4223 683" fill="none" xmlns="http://www.w3.org/2000/svg">
<path d="M298.891 0.0151367H521.262V649.748H298.891V0.0151367Z" fill="#3F3D56"/>
<path d="M298.891 0.0151367H854.72V108.704H298.891V0.0151367Z" fill="#3F3D56"/>
<path d="M298.891 541.06H854.72V649.749H298.891V541.06Z" fill="#3F3D56"/>
<path d="M523.059 324.882L632.896 212.587V437.177L523.059 324.882Z" fill="#3F3D56"/>
<path fill-rule="evenodd" clip-rule="evenodd" d="M854.719 0.0151367H632.348V649.748H854.719V404.429L771.005 324.882L854.719 245.335V0.0151367Z" fill="#3F3D56"/>
<path fill-rule="evenodd" clip-rule="evenodd" d="M222.372 0.0151367H0V105.991L222.372 218.191L0 330.392V649.748H222.372V218.191V0.0151367Z" fill="white"/>
<path d="M1150.35 405.31H945V325.648H996.338V86.662H945V7H1150.35V86.662H1099.01V325.648H1150.35V405.31Z" fill="white"/>
<path d="M1543.9 183.394L1464.04 325.648H1384.18L1304.32 183.394V405.31H1201.65V7H1310.03L1424.11 217.535L1538.2 7H1646.58V405.31H1543.9V183.394Z" fill="white"/>
<path d="M2023.28 399.62C1938.48 407.207 1868.13 411 1812.23 411C1774.96 411 1747.58 402.275 1730.08 384.825C1712.59 367.376 1703.84 340.063 1703.84 302.887V120.803C1703.84 80.9718 1712.78 52.1418 1730.65 34.3127C1748.91 16.1042 1778 7 1817.93 7H2023.28V86.662H1840.75C1817.93 86.662 1806.52 98.0423 1806.52 120.803V302.887C1806.52 311.612 1808.99 318.63 1813.94 323.941C1819.26 328.872 1825.92 331.338 1833.9 331.338C1841.89 331.338 1850.63 331.338 1860.14 331.338C1869.65 330.959 1879.54 330.579 1889.8 330.2C1900.07 329.821 1910.34 329.441 1920.61 329.062C1931.25 328.683 1944.75 327.924 1961.11 326.786C1977.84 325.648 1998.56 324.32 2023.28 322.803V399.62Z" fill="white"/>
<path d="M2140.29 405.31H2029.05L2180.22 7H2294.3L2445.46 405.31H2334.23L2308.56 334.183H2165.96L2140.29 405.31ZM2191.63 260.211H2282.89L2237.26 126.493L2191.63 260.211Z" fill="white"/>
<path d="M2644.98 7H2873.15C2910.42 7 2937.8 15.5352 2955.29 32.6056C2972.78 49.2967 2981.53 74.9024 2981.53 109.423C2981.53 132.183 2976.59 150.771 2966.7 165.186C2956.81 179.222 2944.64 189.085 2930.19 194.775C2961 203.12 2981.91 223.605 2992.94 256.228C2996.74 267.988 2998.64 281.644 2998.64 297.197C2998.64 334.373 2989.9 361.685 2972.4 379.135C2954.91 396.585 2927.53 405.31 2890.26 405.31H2644.98V7ZM2895.97 280.127C2895.97 257.366 2884.56 245.986 2861.74 245.986H2747.66V325.648H2861.74C2884.56 325.648 2895.97 314.268 2895.97 291.507V280.127ZM2878.85 120.803C2878.85 98.0423 2867.45 86.662 2844.63 86.662H2747.66V166.324H2844.63C2867.45 166.324 2878.85 154.944 2878.85 132.183V120.803Z" fill="white"/>
<path d="M3121.26 405.31H3010.03L3161.19 7H3275.28L3426.44 405.31H3315.21L3289.54 334.183H3146.93L3121.26 405.31ZM3172.6 260.211H3263.87L3218.24 126.493L3172.6 260.211Z" fill="white"/>
<path d="M3802.9 405.31H3694.52L3557.62 166.324V405.31H3454.94V7H3563.32L3700.22 245.986V7H3802.9V405.31Z" fill="white"/>
<path d="M3974.29 405.31H3871.62V7H3974.29V163.479H4025.63L4114.62 7H4223L4111.2 203.31L4222.43 405.31H4114.05L4025.63 243.141H3974.29V405.31Z" fill="white"/>
<path d="M959.21 517.974L1006.03 629.996L1053.02 517.974H1067.31V644.904H1056.59V589.634L1057.46 532.969L1010.21 644.904H1001.93L954.851 533.404L955.723 589.285V644.904H945V517.974H959.21Z" fill="white"/>
<path d="M1179.8 644.904C1178.75 641.94 1178.08 637.552 1177.79 631.74C1174.13 636.506 1169.45 640.196 1163.75 642.811C1158.12 645.369 1152.13 646.647 1145.8 646.647C1136.73 646.647 1129.38 644.119 1123.74 639.063C1118.16 634.007 1115.37 627.614 1115.37 619.884C1115.37 610.701 1119.18 603.437 1126.79 598.09C1134.46 592.743 1145.13 590.069 1158.79 590.069H1177.7V579.347C1177.7 572.605 1175.61 567.316 1171.43 563.48C1167.3 559.587 1161.26 557.64 1153.29 557.64C1146.03 557.64 1140.01 559.499 1135.25 563.219C1130.48 566.939 1128.1 571.414 1128.1 576.644L1117.64 576.557C1117.64 569.06 1121.12 562.58 1128.1 557.117C1135.07 551.595 1143.65 548.835 1153.82 548.835C1164.34 548.835 1172.62 551.479 1178.66 556.768C1184.76 561.998 1187.9 569.321 1188.08 578.736V623.371C1188.08 632.496 1189.04 639.324 1190.95 643.858V644.904H1179.8ZM1147.02 637.406C1153.99 637.406 1160.21 635.721 1165.67 632.35C1171.19 628.979 1175.2 624.475 1177.7 618.838V598.09H1159.05C1148.64 598.206 1140.51 600.124 1134.64 603.843C1128.77 607.505 1125.83 612.561 1125.83 619.012C1125.83 624.301 1127.78 628.689 1131.67 632.176C1135.62 635.663 1140.74 637.406 1147.02 637.406Z" fill="white"/>
<path d="M1261.59 597.392L1249.65 608.9V644.904H1239.19V511H1249.65V596.695L1259.5 586.059L1295.59 550.578H1308.76L1268.74 590.331L1312.24 644.904H1299.78L1261.59 597.392Z" fill="white"/>
<path d="M1361.61 644.904H1351.15V550.578H1361.61V644.904ZM1349.31 523.292C1349.31 521.316 1349.95 519.66 1351.23 518.323C1352.51 516.928 1354.25 516.231 1356.46 516.231C1358.67 516.231 1360.42 516.928 1361.69 518.323C1363.03 519.66 1363.7 521.316 1363.7 523.292C1363.7 525.268 1363.03 526.924 1361.69 528.261C1360.42 529.598 1358.67 530.266 1356.46 530.266C1354.25 530.266 1352.51 529.598 1351.23 528.261C1349.95 526.924 1349.31 525.268 1349.31 523.292Z" fill="white"/>
<path d="M1423.18 550.578L1423.53 566.706C1427.07 560.894 1431.49 556.477 1436.78 553.455C1442.07 550.375 1447.91 548.835 1454.3 548.835C1464.41 548.835 1471.94 551.683 1476.88 557.378C1481.82 563.074 1484.32 571.617 1484.38 583.008V644.904H1474V582.921C1473.94 574.494 1472.14 568.217 1468.6 564.091C1465.11 559.964 1459.5 557.901 1451.77 557.901C1445.32 557.901 1439.6 559.935 1434.6 564.004C1429.66 568.014 1426 573.448 1423.61 580.306V644.904H1413.24V550.578H1423.18Z" fill="white"/>
<path d="M1530.43 596.869C1530.43 582.107 1533.68 570.426 1540.19 561.824C1546.76 553.165 1555.65 548.835 1566.87 548.835C1579.71 548.835 1589.48 553.949 1596.16 564.178L1596.69 550.578H1606.45V642.986C1606.45 655.132 1603.05 664.751 1596.25 671.841C1589.45 678.932 1580.24 682.477 1568.61 682.477C1562.05 682.477 1555.77 680.995 1549.78 678.031C1543.85 675.125 1539.18 671.231 1535.75 666.349L1541.59 660.072C1548.97 669.139 1557.74 673.672 1567.92 673.672C1576.63 673.672 1583.43 671.086 1588.32 665.913C1593.2 660.799 1595.73 653.68 1595.9 644.555V632.699C1589.22 641.998 1579.48 646.647 1566.7 646.647C1555.77 646.647 1546.99 642.288 1540.37 633.571C1533.74 624.853 1530.43 613.084 1530.43 598.264V596.869ZM1540.98 598.7C1540.98 610.73 1543.39 620.233 1548.21 627.207C1553.04 634.123 1559.84 637.581 1568.61 637.581C1581.46 637.581 1590.55 631.827 1595.9 620.32V576.47C1593.46 570.426 1589.94 565.834 1585.35 562.696C1580.76 559.499 1575.24 557.901 1568.79 557.901C1560.01 557.901 1553.18 561.359 1548.3 568.275C1543.42 575.133 1540.98 585.275 1540.98 598.7Z" fill="white"/>
<path d="M1725.93 644.904V517.974H1763.41C1777.01 517.974 1787.33 520.793 1794.36 526.43C1801.4 532.01 1804.91 540.262 1804.91 551.189C1804.91 557.756 1803.11 563.48 1799.51 568.362C1795.96 573.186 1791.08 576.644 1784.86 578.736C1792.24 580.364 1798.17 583.996 1802.65 589.634C1807.18 595.271 1809.45 601.78 1809.45 609.161C1809.45 620.378 1805.81 629.154 1798.55 635.489C1791.34 641.765 1781.29 644.904 1768.38 644.904H1725.93ZM1736.65 583.88V635.837H1768.82C1778 635.837 1785.27 633.513 1790.61 628.863C1796.02 624.156 1798.72 617.646 1798.72 609.336C1798.72 601.49 1796.14 595.3 1790.96 590.767C1785.85 586.176 1778.76 583.88 1769.69 583.88H1736.65ZM1736.65 574.901H1765.94C1774.89 574.726 1781.81 572.634 1786.69 568.624C1791.63 564.556 1794.1 558.657 1794.1 550.927C1794.1 542.791 1791.54 536.804 1786.43 532.969C1781.37 529.075 1773.7 527.128 1763.41 527.128H1736.65V574.901Z" fill="white"/>
<path d="M1915.74 644.904C1914.69 641.94 1914.02 637.552 1913.73 631.74C1910.07 636.506 1905.39 640.196 1899.7 642.811C1894.06 645.369 1888.07 646.647 1881.74 646.647C1872.67 646.647 1865.32 644.119 1859.68 639.063C1854.1 634.007 1851.31 627.614 1851.31 619.884C1851.31 610.701 1855.12 603.437 1862.73 598.09C1870.4 592.743 1881.07 590.069 1894.73 590.069H1913.65V579.347C1913.65 572.605 1911.55 567.316 1907.37 563.48C1903.24 559.587 1897.2 557.64 1889.24 557.64C1881.97 557.64 1875.96 559.499 1871.19 563.219C1866.42 566.939 1864.04 571.414 1864.04 576.644L1853.58 576.557C1853.58 569.06 1857.07 562.58 1864.04 557.117C1871.01 551.595 1879.59 548.835 1889.76 548.835C1900.28 548.835 1908.56 551.479 1914.6 556.768C1920.71 561.998 1923.85 569.321 1924.02 578.736V623.371C1924.02 632.496 1924.98 639.324 1926.9 643.858V644.904H1915.74ZM1882.96 637.406C1889.93 637.406 1896.15 635.721 1901.61 632.35C1907.14 628.979 1911.15 624.475 1913.65 618.838V598.09H1894.99C1884.59 598.206 1876.45 600.124 1870.58 603.843C1864.71 607.505 1861.77 612.561 1861.77 619.012C1861.77 624.301 1863.72 628.689 1867.61 632.176C1871.57 635.663 1876.68 637.406 1882.96 637.406Z" fill="white"/>
<path d="M1985.07 550.578L1985.42 566.706C1988.96 560.894 1993.38 556.477 1998.67 553.455C2003.96 550.375 2009.8 548.835 2016.19 548.835C2026.3 548.835 2033.83 551.683 2038.77 557.378C2043.71 563.074 2046.21 571.617 2046.27 583.008V644.904H2035.89V582.921C2035.83 574.494 2034.03 568.217 2030.49 564.091C2027 559.964 2021.39 557.901 2013.66 557.901C2007.21 557.901 2001.49 559.935 1996.49 564.004C1991.55 568.014 1987.89 573.448 1985.5 580.306V644.904H1975.13V550.578H1985.07Z" fill="white"/>
<path d="M2118.91 597.392L2106.96 608.9V644.904H2096.5V511H2106.96V596.695L2116.82 586.059L2152.91 550.578H2166.07L2126.06 590.331L2169.56 644.904H2157.09L2118.91 597.392Z" fill="white"/>
<path d="M2218.92 644.904H2208.46V550.578H2218.92V644.904ZM2206.63 523.292C2206.63 521.316 2207.27 519.66 2208.55 518.323C2209.83 516.928 2211.57 516.231 2213.78 516.231C2215.99 516.231 2217.73 516.928 2219.01 518.323C2220.35 519.66 2221.02 521.316 2221.02 523.292C2221.02 525.268 2220.35 526.924 2219.01 528.261C2217.73 529.598 2215.99 530.266 2213.78 530.266C2211.57 530.266 2209.83 529.598 2208.55 528.261C2207.27 526.924 2206.63 525.268 2206.63 523.292Z" fill="white"/>
<path d="M2280.49 550.578L2280.84 566.706C2284.39 560.894 2288.81 556.477 2294.09 553.455C2299.38 550.375 2305.22 548.835 2311.62 548.835C2321.73 548.835 2329.26 551.683 2334.2 557.378C2339.14 563.074 2341.64 571.617 2341.69 583.008V644.904H2331.32V582.921C2331.26 574.494 2329.46 568.217 2325.91 564.091C2322.43 559.964 2316.82 557.901 2309.09 557.901C2302.64 557.901 2296.91 559.935 2291.91 564.004C2286.97 568.014 2283.31 573.448 2280.93 580.306V644.904H2270.56V550.578H2280.49Z" fill="white"/>
<path d="M2387.75 596.869C2387.75 582.107 2391 570.426 2397.51 561.824C2404.08 553.165 2412.97 548.835 2424.19 548.835C2437.03 548.835 2446.8 553.949 2453.48 564.178L2454 550.578H2463.77V642.986C2463.77 655.132 2460.37 664.751 2453.57 671.841C2446.77 678.932 2437.55 682.477 2425.93 682.477C2419.36 682.477 2413.09 680.995 2407.1 678.031C2401.17 675.125 2396.49 671.231 2393.06 666.349L2398.9 660.072C2406.29 669.139 2415.06 673.672 2425.23 673.672C2433.95 673.672 2440.75 671.086 2445.63 665.913C2450.52 660.799 2453.04 653.68 2453.22 644.555V632.699C2446.53 641.998 2436.8 646.647 2424.01 646.647C2413.09 646.647 2404.31 642.288 2397.68 633.571C2391.06 624.853 2387.75 613.084 2387.75 598.264V596.869ZM2398.29 598.7C2398.29 610.73 2400.71 620.233 2405.53 627.207C2410.35 634.123 2417.15 637.581 2425.93 637.581C2438.77 637.581 2447.87 631.827 2453.22 620.32V576.47C2450.78 570.426 2447.26 565.834 2442.67 562.696C2438.08 559.499 2432.56 557.901 2426.1 557.901C2417.33 557.901 2410.5 561.359 2405.62 568.275C2400.74 575.133 2398.29 585.275 2398.29 598.7Z" fill="white"/>
<path d="M2653.34 584.054H2593.97V635.837H2662.23V644.904H2583.24V517.974H2661.79V527.128H2593.97V574.988H2653.34V584.054Z" fill="white"/>
<path d="M2765.21 644.904C2764.16 641.94 2763.49 637.552 2763.2 631.74C2759.54 636.506 2754.86 640.196 2749.17 642.811C2743.53 645.369 2737.54 646.647 2731.21 646.647C2722.14 646.647 2714.79 644.119 2709.15 639.063C2703.57 634.007 2700.78 627.614 2700.78 619.884C2700.78 610.701 2704.59 603.437 2712.2 598.09C2719.88 592.743 2730.54 590.069 2744.2 590.069H2763.12V579.347C2763.12 572.605 2761.02 567.316 2756.84 563.48C2752.71 559.587 2746.67 557.64 2738.71 557.64C2731.44 557.64 2725.43 559.499 2720.66 563.219C2715.89 566.939 2713.51 571.414 2713.51 576.644L2703.05 576.557C2703.05 569.06 2706.54 562.58 2713.51 557.117C2720.49 551.595 2729.06 548.835 2739.23 548.835C2749.75 548.835 2758.03 551.479 2764.08 556.768C2770.18 561.998 2773.32 569.321 2773.49 578.736V623.371C2773.49 632.496 2774.45 639.324 2776.37 643.858V644.904H2765.21ZM2732.43 637.406C2739.4 637.406 2745.62 635.721 2751.09 632.35C2756.61 628.979 2760.62 624.475 2763.12 618.838V598.09H2744.46C2734.06 598.206 2725.92 600.124 2720.05 603.843C2714.18 607.505 2711.24 612.561 2711.24 619.012C2711.24 624.301 2713.19 628.689 2717.09 632.176C2721.04 635.663 2726.15 637.406 2732.43 637.406Z" fill="white"/>
<path d="M2881.09 620.93C2881.09 615.758 2879 611.602 2874.81 608.464C2870.69 605.325 2864.44 602.884 2856.07 601.141C2847.7 599.339 2841.19 597.305 2836.54 595.039C2831.95 592.714 2828.52 589.895 2826.26 586.582C2824.05 583.27 2822.94 579.26 2822.94 574.552C2822.94 567.113 2826.05 560.981 2832.27 556.158C2838.49 551.276 2846.45 548.835 2856.16 548.835C2866.68 548.835 2875.11 551.45 2881.44 556.681C2887.83 561.853 2891.03 568.624 2891.03 576.993H2880.57C2880.57 571.472 2878.24 566.88 2873.59 563.219C2869 559.558 2863.19 557.727 2856.16 557.727C2849.3 557.727 2843.78 559.267 2839.59 562.347C2835.47 565.369 2833.4 569.321 2833.4 574.203C2833.4 578.911 2835.12 582.572 2838.55 585.188C2842.04 587.745 2848.34 590.098 2857.47 592.249C2866.65 594.399 2873.51 596.695 2878.04 599.136C2882.63 601.577 2886.03 604.512 2888.24 607.941C2890.45 611.37 2891.55 615.525 2891.55 620.407C2891.55 628.369 2888.33 634.733 2881.88 639.499C2875.48 644.264 2867.11 646.647 2856.77 646.647C2845.78 646.647 2836.86 644.003 2830 638.714C2823.2 633.367 2819.8 626.626 2819.8 618.489H2830.27C2830.67 624.591 2833.23 629.357 2837.94 632.786C2842.7 636.157 2848.98 637.842 2856.77 637.842C2864.03 637.842 2869.9 636.244 2874.38 633.048C2878.85 629.851 2881.09 625.812 2881.09 620.93Z" fill="white"/>
<path d="M2968.21 629.909L2995.75 550.578H3007L2966.72 660.944L2964.63 665.826C2959.46 677.275 2951.47 683 2940.66 683C2938.16 683 2935.48 682.593 2932.64 681.78L2932.55 673.149L2937.95 673.672C2943.07 673.672 2947.19 672.393 2950.33 669.836C2953.53 667.337 2956.23 663.007 2958.44 656.847L2963.06 644.119L2927.49 550.578H2938.91L2968.21 629.909Z" fill="white"/>
</svg>
