<svg width="91" height="98" viewBox="0 0 91 98" fill="none" xmlns="http://www.w3.org/2000/svg">
<g filter="url(#filter0_d)">
<rect x="4" y="56" width="20" height="24" fill="white"/>
<rect x="4.5" y="56.5" width="19" height="23" stroke="black"/>
</g>
<path d="M66.9714 87.4778C66.1275 86.3531 64.9851 85.5302 63.5489 85.2222C62.2965 84.9537 61.0087 84.9994 59.7357 85.0088L43.6386 85.1269C42.26 85.137 40.9382 86.2737 41.0022 87.636C41.0658 88.9867 42.1609 90.1559 43.6386 90.1451C48.3539 90.1105 53.0693 90.0759 57.7845 90.0413C58.8962 90.0331 60.0085 90.014 61.1202 90.0175C61.3699 90.0183 61.6185 90.0308 61.8679 90.0335C61.9283 90.0341 61.9719 90.0336 62.0028 90.0324C62.0105 90.0346 62.017 90.0367 62.0271 90.0393C62.1572 90.0733 62.2906 90.0967 62.4215 90.129C62.3757 90.1303 62.5064 90.208 62.572 90.2342C62.5811 90.2512 62.6003 90.2812 62.6324 90.3276C62.6772 90.4076 62.8099 90.6504 62.8153 90.6428C63.0147 91.1224 63.1791 91.6146 63.3075 92.1157C63.6139 93.2209 63.6812 93.4519 63.7253 94.4887C63.7811 95.7984 64.898 97.0602 66.3617 96.9978C67.7423 96.9389 69.0578 95.8934 68.998 94.4887C68.8973 92.1217 68.4608 89.4627 66.9714 87.4778Z" fill="#E6E6E6"/>
<path d="M44.9443 93.4974C44.6332 91.6535 44.328 89.8084 44.0108 87.9656C43.689 86.0961 43.0317 84.3841 41.5441 83.1572C41.1466 82.8293 40.7345 82.5233 40.3206 82.2181C40.1751 82.1109 40.0298 82.0035 39.886 81.8938C39.8774 81.8873 39.8719 81.8832 39.8644 81.8775C39.8486 81.8642 39.8297 81.8484 39.8042 81.8273C39.1841 81.3141 38.585 80.7781 38.0144 80.2083C37.5076 79.7023 37.023 79.1747 36.5605 78.6256C36.4449 78.4884 36.3308 78.35 36.2182 78.2104C36.1988 78.1864 36.0945 78.0545 36.0258 77.9685C35.9619 77.8824 35.845 77.7269 35.8254 77.6998C35.6939 77.5178 35.5647 77.3342 35.4378 77.1489C34.5737 75.8828 33.8255 74.5447 33.2018 73.15C33.14 73.0117 33.0796 72.8726 33.0207 72.7326C33.0049 72.6899 32.9844 72.6351 32.9573 72.562C32.8316 72.224 32.7061 71.8864 32.5912 71.5444C32.3471 70.818 32.1372 70.0809 31.9615 69.333C31.8747 68.9637 31.7965 68.5925 31.727 68.2195C31.6911 68.0277 31.6576 67.8354 31.6264 67.6428C31.6212 67.6108 31.5908 67.403 31.5728 67.2856C31.5596 67.1676 31.5349 66.9586 31.5316 66.9264C31.5117 66.7322 31.4941 66.5378 31.4787 66.3433C31.444 65.9055 31.4205 65.467 31.4083 65.0277C31.3875 64.2471 31.4018 63.4665 31.4512 62.686C31.4794 62.2475 31.5194 61.8101 31.5688 61.3735C31.5718 61.3467 31.5741 61.3253 31.5762 61.3061C31.5792 61.2866 31.5827 61.2645 31.5868 61.2369C31.6233 60.9956 31.6617 60.7547 31.7047 60.5145C31.8674 59.6026 32.0791 58.6996 32.3387 57.8094C32.4617 57.3883 32.5952 56.9707 32.7394 56.5565C32.8036 56.3727 32.8699 56.1895 32.9382 56.007C32.9338 56.0188 33.1387 55.5069 33.1414 55.4897C33.9544 53.6111 35.2842 51.8985 35.286 49.7645C35.2873 48.3196 34.0374 46.9356 32.5731 47.0023C31.8431 47.0292 31.1522 47.3322 30.6461 47.8475C30.14 48.3627 29.8583 49.05 29.8602 49.7645C29.8602 49.7969 29.86 49.8246 29.8599 49.8515C29.8463 49.8965 29.8349 49.934 29.8246 49.9672C29.666 50.3041 29.4718 50.6243 29.2978 50.9529C28.8212 51.8522 28.4145 52.7811 28.0281 53.7235C27.3955 55.2583 26.9113 56.8477 26.5819 58.4707C25.8657 62.027 25.8102 65.6803 26.4178 69.2559C27.4697 75.5261 30.9385 81.5282 35.7609 85.5627C36.1795 85.9129 36.6081 86.2512 37.0409 86.5827C37.22 86.7199 37.4005 86.8545 37.582 86.9883C37.6678 87.0515 38.0231 87.3255 37.8668 87.1928C38.203 87.4733 38.3445 87.6145 38.4308 87.8211C38.4433 87.8688 38.4604 87.9335 38.4835 88.0219C38.5443 88.255 38.6021 88.4875 38.6501 88.7238C39.0699 90.7885 39.3616 92.8879 39.7123 94.9659C39.9533 96.3938 41.7507 97.3231 43.0495 96.8952C44.5613 96.397 45.2025 95.0273 44.9443 93.4974Z" fill="#E6E6E6"/>
<path d="M67.1065 98C66.0333 98.0029 65.0027 97.5679 64.2409 96.7904C63.4792 96.013 63.0484 94.9567 63.0432 93.8531V90.8556C59.991 91.2069 49.5396 91.1255 46.5437 90.6306V93.7332C46.5356 94.8359 46.104 95.8906 45.3428 96.6674C44.5816 97.4442 43.5527 97.8801 42.4803 97.8801C41.4078 97.8801 40.3789 97.4442 39.6177 96.6674C38.8565 95.8906 38.4249 94.8359 38.4168 93.7332V87.6415C34.3592 85.3237 30.9765 81.9345 28.618 77.8237C26.2595 73.7129 25.0105 69.0294 25 64.2566C25 56.0728 28.6071 48.4385 34.8963 43.3113C38.9855 39.9663 43.9539 37.9546 49.1633 37.5347C49.8704 37.4776 50.5818 37.4488 51.2778 37.4488C53.73 37.4488 64.7935 37.8383 67.5694 38.6594L73.8989 32.2015C73.992 32.1053 74.1108 32.0397 74.2402 32.0132C74.3696 31.9867 74.5038 32.0004 74.6257 32.0526C74.7484 32.1028 74.8535 32.19 74.9272 32.3027C75.0009 32.4155 75.0396 32.5485 75.0385 32.6843V33.7111L76.2709 32.456C76.3638 32.3597 76.4825 32.294 76.6119 32.2675C76.7412 32.2409 76.8754 32.2546 76.9971 32.3069C77.12 32.357 77.2252 32.4443 77.2989 32.5571C77.3727 32.6698 77.4115 32.8029 77.4104 32.9389V44.413C80.5864 47.3571 83.0072 51.0613 84.458 55.1974C85.9088 59.3335 86.345 63.7738 85.7278 68.1246C85.1106 72.4755 83.4591 76.6026 80.9198 80.1403C78.3804 83.678 75.0315 86.5169 71.1699 88.4056V93.8531C71.1646 94.9567 70.7339 96.013 69.9721 96.7904C69.2104 97.5679 68.1798 98.0028 67.1065 98ZM63.3626 90.4831V93.8531C63.3707 94.8686 63.7687 95.8398 64.4699 96.5549C65.1712 97.2701 66.1188 97.6714 67.1065 97.6714C68.0942 97.6714 69.0419 97.2701 69.7432 96.5549C70.4444 95.8398 70.8424 94.8686 70.8505 93.8531V88.1981L70.9417 88.1536C75.2746 86.0395 78.9529 82.7319 81.5682 78.5982C84.9009 73.3233 86.2868 66.9959 85.4753 60.7612C84.6638 54.5266 81.7084 48.7966 77.144 44.6085L77.0909 44.5595V32.9388C77.0921 32.8682 77.0721 32.799 77.0338 32.7404C76.9955 32.6818 76.9406 32.6367 76.8766 32.6111C76.813 32.5831 76.7426 32.5756 76.6747 32.5894C76.6069 32.6033 76.5446 32.6379 76.4963 32.6888L74.719 34.4987V32.6843C74.7201 32.6137 74.7002 32.5444 74.6619 32.4858C74.6236 32.4272 74.5687 32.3821 74.5047 32.3566C74.4409 32.3286 74.3704 32.3212 74.3024 32.3351C74.2344 32.3491 74.1721 32.3838 74.1237 32.4348L67.6586 39.031L67.5668 39.0014C64.9863 38.171 53.7486 37.7772 51.2778 37.7772C50.5901 37.7772 49.8871 37.8058 49.1884 37.8622C44.0423 38.277 39.1343 40.2642 35.0948 43.5686C28.8824 48.6332 25.3194 56.1737 25.3194 64.2566C25.33 68.9872 26.5723 73.6285 28.9172 77.6985C31.2621 81.7686 34.6241 85.1188 38.6539 87.4012L38.7363 87.4481V93.7332C38.7445 94.7486 39.1426 95.7196 39.8438 96.4347C40.5451 97.1497 41.4927 97.5509 42.4803 97.5509C43.4678 97.5509 44.4154 97.1497 45.1167 96.4347C45.8179 95.7196 46.216 94.7486 46.2242 93.7332V90.2374L46.4135 90.274C49.1057 90.7948 60.4423 90.8769 63.1821 90.5074L63.3626 90.4831Z" fill="#3F3D56"/>
<path d="M44.2837 20.0461L26.5784 25.5258C26.0152 25.7008 25.5426 26.0989 25.2642 26.6325C24.9859 27.1662 24.9246 27.7918 25.0939 28.372C25.2632 28.9522 25.6492 29.4394 26.167 29.7267C26.6849 30.0139 27.2924 30.0777 27.8559 29.904L43.35 25.1076L43.6746 25.0071C43.7403 23.2846 44.194 21.6014 45 20.0905C44.8988 20.0436 44.7907 20.0147 44.6802 20.0049C44.5467 19.9916 44.412 20.0056 44.2837 20.0461Z" fill="#6C63FF"/>
<path d="M27.381 31C27.1295 30.9994 26.8846 30.9203 26.6808 30.774C26.4771 30.6277 26.3248 30.4215 26.2455 30.1846L25.0608 26.6358C25.0113 26.4876 24.9917 26.3311 25.0032 26.1754C25.0146 26.0197 25.0568 25.8677 25.1274 25.7282C25.198 25.5887 25.2955 25.4644 25.4145 25.3623C25.5335 25.2602 25.6716 25.1824 25.8209 25.1333L41.24 20.0604C41.3893 20.0113 41.5469 19.9918 41.7037 20.0031C41.8605 20.0145 42.0136 20.0563 42.1541 20.1264C42.2947 20.1964 42.4199 20.2933 42.5228 20.4114C42.6256 20.5295 42.704 20.6666 42.7535 20.8148L43.9381 24.3636C44.0367 24.6555 44.0169 24.974 43.883 25.2517C43.7491 25.5293 43.5116 25.7444 43.2208 25.8512C43.2065 25.8565 43.1922 25.8615 43.1776 25.8662L27.7589 30.939C27.637 30.9793 27.5095 30.9999 27.381 31Z" fill="#2F2E41"/>
<path d="M55.5 13C52.5115 13.0012 49.6407 14.1651 47.4952 16.2456C45.3497 18.3261 44.098 21.1597 44.0049 24.1468C44.0016 24.2634 44 24.3817 44 24.5C44 26.7745 44.6745 28.9979 45.9381 30.889C47.2017 32.7802 48.9978 34.2542 51.0991 35.1246C53.2005 35.995 55.5128 36.2228 57.7435 35.779C59.9743 35.3353 62.0234 34.24 63.6317 32.6317C65.24 31.0234 66.3353 28.9743 66.779 26.7435C67.2228 24.5128 66.995 22.2005 66.1246 20.0991C65.2542 17.9978 63.7802 16.2017 61.8891 14.9381C59.9979 13.6745 57.7745 13 55.5 13ZM55.5 35.6714C52.5381 35.6683 49.6984 34.4904 47.604 32.396C45.5096 30.3016 44.3317 27.4619 44.3286 24.5C44.3286 24.3472 44.3319 24.1961 44.3384 24.0466C44.4274 21.8583 45.1576 19.7444 46.4384 17.9677C47.7191 16.1911 49.4938 14.8302 51.5418 14.0541C53.5898 13.278 55.8208 13.1211 57.9573 13.6028C60.0938 14.0845 62.0416 15.1836 63.5584 16.7634C65.0753 18.3432 66.0943 20.334 66.4887 22.4883C66.8832 24.6426 66.6357 26.8654 65.777 28.8802C64.9183 30.8949 63.4864 32.6129 61.6592 33.8203C59.832 35.0278 57.6901 35.6715 55.5 35.6714Z" fill="#3F3D56"/>
<path d="M65 25.5C65 28.0195 63.9464 30.4359 62.0711 32.2175C60.1957 33.9991 57.6522 35 55 35C52.3478 35 49.8043 33.9991 47.9289 32.2175C46.0536 30.4359 45 28.0195 45 25.5C45 25.1989 45.0152 24.9026 45.044 24.6096C45.285 22.1779 46.5026 19.9279 48.4439 18.3266C50.3852 16.7253 52.9011 15.8959 55.4692 16.0105C58.0373 16.1251 60.4603 17.1749 62.235 18.942C64.0098 20.709 65 23.0576 65 25.5Z" fill="#E6E6E6"/>
<path d="M57.6616 25.6733C57.445 25.3504 57.16 25.0946 56.833 24.9296C56.4296 24.7369 56.0131 24.5817 55.5876 24.4658V21.7071C56.2417 21.819 56.8552 22.1361 57.3586 22.6227L57.8526 21.4289C57.5685 21.1419 57.2424 20.9135 56.889 20.7538C56.4972 20.574 56.0861 20.4544 55.6664 20.3982V19H54.5225V20.412C54.0808 20.4682 53.6548 20.6304 53.2726 20.8878C52.9274 21.1194 52.6368 21.4424 52.4257 21.8291C52.2242 22.2065 52.1197 22.6402 52.1242 23.0813C52.1045 23.5593 52.2267 24.031 52.4711 24.4211C52.6962 24.7589 52.9934 25.0261 53.3347 25.1975C53.7444 25.3959 54.1681 25.5551 54.6013 25.6733V28.3169C53.8294 28.2509 53.0939 27.9182 52.4939 27.3636L52 28.5591C52.3355 28.8736 52.717 29.1189 53.1272 29.284C53.5767 29.4664 54.0462 29.5774 54.5225 29.6138V31H55.6664V29.588C56.3017 29.5093 56.8975 29.1996 57.3647 28.7051C57.5705 28.4814 57.733 28.2117 57.842 27.9131C57.951 27.6144 58.0041 27.2934 57.998 26.9702C58.017 26.5074 57.8986 26.0508 57.6616 25.6733ZM54.6013 24.1738C54.3227 24.078 54.0636 23.9203 53.8392 23.71C53.7503 23.6203 53.68 23.5094 53.6334 23.3853C53.5868 23.2611 53.565 23.1268 53.5696 22.992C53.5613 22.686 53.6605 22.3889 53.8453 22.1658C54.0502 21.9317 54.3145 21.7761 54.6013 21.7209V24.1738ZM56.3057 27.8291C56.1124 28.0538 55.8608 28.2025 55.5876 28.2534V25.9791C55.8487 26.0585 56.093 26.197 56.3057 26.3862C56.3864 26.4643 56.4504 26.562 56.4932 26.672C56.5359 26.7821 56.5563 26.9016 56.5527 27.0218C56.5632 27.3166 56.475 27.605 56.3057 27.8291Z" fill="#6C63FF"/>
<path d="M27.7445 45C27.4943 44.9996 27.2511 44.9137 27.0528 44.7557C26.8545 44.5978 26.7121 44.3765 26.6477 44.1262L26.0373 41.7357C25.9609 41.4353 26.0028 41.1157 26.1538 40.8471C26.3048 40.5786 26.5526 40.383 26.8428 40.3032L46.0986 35.0381C46.3892 34.9596 46.6979 35.0034 46.9574 35.1599C47.2168 35.3165 47.4058 35.5729 47.4829 35.8732L48 37.8985L47.9031 37.9063C42.9646 38.3036 38.2394 40.1564 34.2866 43.2454L34.2585 43.2594L28.032 44.9614C27.9382 44.987 27.8416 45 27.7445 45Z" fill="#2F2E41"/>
<path d="M24.726 55.2712C22.5001 54.9438 20.3713 54.1424 18.4847 52.9217C17.55 52.3174 16.6847 51.6128 15.9044 50.8206C15.1342 50.0384 14.3974 49.1495 14.0159 48.1078C13.6488 47.1441 13.6677 46.0769 14.0687 45.1267C14.4642 44.1823 15.2197 43.4325 16.1696 43.0419C17.1251 42.6625 18.2796 42.6219 19.2095 43.0374C19.6527 43.2308 20.0362 43.5381 20.3206 43.9278C20.4528 44.1075 20.5507 44.3098 20.6094 44.5247C20.6639 44.7195 20.6688 44.9247 20.6238 45.1218C20.5693 45.3186 20.4731 45.5015 20.3418 45.6583C20.2104 45.8151 20.0469 45.9421 19.8622 46.0308C19.4557 46.2384 19.0153 46.3721 18.5617 46.4257C18.1054 46.4876 17.4499 46.544 17.0831 46.1793C17.0076 46.1072 16.9482 46.02 16.9088 45.9235C16.8812 45.8496 16.8718 45.7702 16.8813 45.6919C16.876 45.7264 16.9034 45.6169 16.9019 45.6212C16.8961 45.6374 16.871 45.6769 16.9067 45.6163C16.9178 45.5963 16.9302 45.577 16.9439 45.5586C16.9317 45.5742 16.9051 45.6003 16.9527 45.5556C16.9919 45.5128 17.0425 45.4817 17.0985 45.4659C17.1206 45.4595 17.143 45.4544 17.1651 45.4484C17.2214 45.4331 17.109 45.4492 17.1666 45.4474C17.1888 45.4467 17.2113 45.4472 17.2335 45.4462C17.2899 45.4437 17.1777 45.4309 17.2319 45.4445C17.2529 45.4497 17.2737 45.4549 17.2944 45.4614C17.3394 45.4755 17.2625 45.4285 17.293 45.4637C17.3288 45.5049 17.2555 45.4236 17.2961 45.4635C17.3163 45.4832 17.3354 45.5041 17.3532 45.5261C17.4236 45.5953 17.5186 45.6342 17.6176 45.6342C17.7166 45.6342 17.8116 45.5953 17.882 45.5261C17.9501 45.4552 17.9881 45.3609 17.9881 45.2628C17.9881 45.1648 17.9501 45.0705 17.882 44.9996C17.5133 44.5444 16.7849 44.6569 16.4119 45.0415C15.9362 45.5321 16.1246 46.3095 16.5873 46.7376C17.1112 47.2221 17.8531 47.2558 18.527 47.1745C19.0965 47.1202 19.6514 46.9641 20.1652 46.7136C20.6758 46.4638 21.0751 46.0344 21.2858 45.5084C21.381 45.2276 21.4151 44.93 21.3861 44.6351C21.357 44.3402 21.2654 44.0549 21.1173 43.7979C20.5223 42.6843 19.2904 42.1134 18.0727 42.0145C17.4458 41.9656 16.8153 42.0409 16.2178 42.2362C15.6204 42.4315 15.0677 42.7428 14.5919 43.1521C13.6747 43.9742 13.1099 45.1158 13.0144 46.3407C12.9081 47.6108 13.403 48.8441 14.1246 49.8691C14.88 50.9105 15.7815 51.8387 16.8015 52.6254C18.7955 54.2104 21.1346 55.3087 23.6314 55.8323C23.9284 55.8934 24.227 55.9457 24.5271 55.9892C24.6227 56.0122 24.7234 55.9982 24.8089 55.9498C24.8943 55.9015 24.9581 55.8226 24.9871 55.7291C25.0128 55.634 24.9998 55.5325 24.9509 55.4468C24.902 55.3611 24.8212 55.298 24.726 55.2712L24.726 55.2712Z" fill="#3F3D56"/>
<path d="M60.9786 39.0147C57.6733 38.9597 54.3784 39.0587 51.094 39.3115C49.9713 39.398 49 39.8659 49 40.6524C49 41.3099 49.9636 42.0803 51.094 41.9932C54.3768 41.7404 57.6716 41.6415 60.9786 41.6965C63.6746 41.7414 63.673 39.0596 60.9786 39.0147Z" fill="#CCCCCC"/>
<path d="M56 42C55.6325 42 47 41.9829 47 40.4999C47 39.0171 55.6325 39 56 39C56.3675 39 65 39.0171 65 40.4999C65 41.9829 56.3675 42 56 42ZM47.3376 40.4999C47.5738 40.9496 50.7469 41.5862 56 41.5862C61.2531 41.5862 64.4262 40.9496 64.6624 40.4999C64.4262 40.0504 61.2531 39.4138 56 39.4138C50.7469 39.4138 47.5738 40.0504 47.3376 40.5V40.4999Z" fill="#3F3D56"/>
<path d="M84.0281 68C85.699 67.9272 87.7784 67.8362 89.3804 66C89.8575 65.4308 90.2494 64.7048 90.5288 63.8729C90.8082 63.041 90.9683 62.1233 90.9978 61.1841C91.0305 59.7339 90.6966 58.4681 90.0576 57.6208C89.2208 56.5114 87.999 56.2512 86.6823 56.8584L88.0465 41.2153L87.0451 41L85.4413 59.3904L86.2776 58.7883C87.2471 58.0905 88.578 57.7354 89.4051 58.8321C89.6082 59.1188 89.7664 59.4751 89.8674 59.8733C89.9685 60.2716 90.0096 60.701 89.9877 61.1283C89.9632 61.8273 89.843 62.5098 89.6353 63.1295C89.4276 63.7491 89.1373 64.2912 88.7842 64.719C87.5375 66.1479 85.8799 66.3322 84 66.4147L84.0281 68Z" fill="#3F3D56"/>
<path d="M80 54H74V56H80V54Z" fill="#3F3D56"/>
<path d="M31.4802 50C31.2142 49.9991 30.9572 49.8986 30.7553 49.7164C30.5533 49.5343 30.4196 49.2824 30.378 49.006L30.0133 46.5565C29.9678 46.2485 30.0402 45.934 30.2147 45.6821C30.3893 45.4301 30.6517 45.2614 30.9443 45.2128L50.3451 42.014C50.6378 41.9661 50.9366 42.0423 51.176 42.226C51.4154 42.4096 51.5758 42.6857 51.622 42.9937L51.9867 45.4432C52.0323 45.7512 51.9598 46.0657 51.7853 46.3176C51.6108 46.5696 51.3484 46.7384 51.0557 46.7869L31.655 49.9856C31.5972 49.9952 31.5387 50 31.4802 50Z" fill="#2F2E41"/>
<path d="M22.5 22C27.1944 22 31 18.1944 31 13.5C31 8.80558 27.1944 5 22.5 5C17.8056 5 14 8.80558 14 13.5C14 18.1944 17.8056 22 22.5 22Z" fill="#6C63FF"/>
<path d="M27.4315 15.7566C27.8152 15.6577 28.1657 15.4994 28.4595 15.2923C28.6538 15.1447 28.8021 14.9676 28.8937 14.7733C28.9854 14.579 29.0184 14.3723 28.9903 14.1676C28.9739 14.0218 28.9121 13.8807 28.8095 13.7553C28.7069 13.63 28.5664 13.5239 28.3989 13.4452C27.9644 13.2483 27.3903 13.2557 26.8106 13.4538L26.7437 10L26.273 10.0049L26.3516 14.0652L26.71 13.892C27.1255 13.6914 27.7226 13.546 28.1522 13.7408C28.2585 13.7923 28.3472 13.8612 28.4114 13.9422C28.4756 14.0231 28.5136 14.1139 28.5225 14.2074C28.5423 14.3598 28.5173 14.5137 28.4492 14.6584C28.3811 14.8031 28.2715 14.9353 28.1279 15.046C27.6176 15.4191 26.8622 15.5442 26 15.6586L26.0834 16C26.5417 15.9487 26.9929 15.8673 27.4315 15.7566Z" fill="#2F2E41"/>
<path d="M30.486 9.80958L28.7589 10.0756L28.8075 10.4018L30.5345 10.1357L30.486 9.80958Z" fill="#2F2E41"/>
<path d="M25.0346 10.6491L23.3075 10.9151L23.3561 11.2413L25.0831 10.9752L25.0346 10.6491Z" fill="#2F2E41"/>
<path d="M28.5208 50C28.2243 49.9994 27.935 49.9073 27.6914 49.7361C27.4478 49.565 27.2615 49.3227 27.1572 49.0417L21.4724 33.629C20.7775 31.7388 20.8517 29.6466 21.6787 27.8117C22.5056 25.9767 24.0178 24.5488 25.8834 23.8412L30.5059 22.0938C30.6846 22.0257 30.8749 21.9942 31.0657 22.0009C31.2566 22.0076 31.4442 22.0524 31.6179 22.1329C31.7911 22.2112 31.9472 22.3237 32.077 22.4638C32.2067 22.604 32.3076 22.7688 32.3738 22.9489L42.9045 43.0777C42.9729 43.2592 43.0051 43.4526 42.9993 43.6468C42.9936 43.841 42.95 44.0321 42.871 44.2091C42.792 44.3862 42.6792 44.5456 42.5391 44.6784C42.399 44.8111 42.2344 44.9145 42.0546 44.9826L29.0293 49.9064C28.8667 49.9682 28.6945 49.9999 28.5208 50Z" fill="#2F2E41"/>
<path d="M29 22.6815L40 36L32.5568 22.8213C32.4953 22.6675 32.401 22.5262 32.2792 22.4054C32.1574 22.2847 32.0105 22.1868 31.8469 22.1175C31.6834 22.0481 31.5063 22.0086 31.3259 22.0013C31.1454 21.9939 30.9652 22.0188 30.7954 22.0745L29 22.6815Z" fill="#E6E6E6"/>
<path d="M45.7298 32.9977L27.097 31.7299C26.8034 31.7099 26.5163 31.629 26.2522 31.4918C25.9881 31.3546 25.7521 31.1638 25.5578 30.9303C25.3635 30.6968 25.2147 30.4252 25.1197 30.1309C25.0248 29.8366 24.9857 29.5255 25.0046 29.2152C25.0236 28.905 25.1001 28.6017 25.23 28.3227C25.3599 28.0437 25.5405 27.7945 25.7615 27.5893C25.9826 27.384 26.2397 27.2268 26.5183 27.1265C26.7969 27.0262 27.0915 26.9849 27.3851 27.0049L46.0179 28.2727C46.1554 28.282 46.2899 28.3199 46.4136 28.3841C46.5373 28.4484 46.6478 28.5377 46.7388 28.6471C46.8298 28.7564 46.8995 28.8836 46.9439 29.0214C46.9884 29.1593 47.0067 29.305 46.9978 29.4503L46.8447 31.9626C46.8267 32.256 46.6992 32.5299 46.4902 32.724C46.2811 32.9181 46.0076 33.0166 45.7298 32.9977Z" fill="#6C63FF"/>
<path d="M40.6737 34C40.6502 34 40.6267 33.9992 40.6031 33.9977H40.6031L26.0088 33.0538C25.8676 33.0447 25.7294 33.0077 25.6024 32.9449C25.4753 32.8822 25.3618 32.795 25.2683 32.6882C25.1749 32.5814 25.1033 32.4572 25.0576 32.3226C25.0119 32.188 24.9931 32.0458 25.0022 31.9039L25.2518 28.013C25.2609 27.8711 25.2977 27.7324 25.3602 27.6048C25.4227 27.4772 25.5096 27.3633 25.616 27.2694C25.7223 27.1756 25.846 27.1037 25.9801 27.0578C26.1141 27.012 26.2558 26.9931 26.3971 27.0022L40.9913 27.9461C41.2765 27.9649 41.5426 28.0965 41.7313 28.3121C41.9201 28.5276 42.0159 28.8096 41.9978 29.096L41.7483 32.987C41.7346 33.1955 41.6612 33.3956 41.537 33.5632C41.4128 33.7309 41.243 33.859 41.0481 33.9321C40.9284 33.9771 40.8015 34.0001 40.6737 34Z" fill="#2F2E41"/>
<path d="M22.984 7.85428C24.114 6.88877 25.6657 7.75249 26.9616 7.60129C28.2013 7.45663 29.1803 6.35179 29.4304 5.17804C29.7221 3.80865 29.0067 2.43673 27.9522 1.58295C26.7973 0.64784 25.2656 0.379393 23.8141 0.552395C22.1505 0.750674 20.629 1.52109 19.2639 2.45295C17.9461 3.32457 16.7343 4.34473 15.6527 5.4931C14.6841 6.55589 13.8634 7.82271 13.6013 9.25284C13.3632 10.5525 13.545 11.9928 14.3184 13.0938C14.7285 13.6581 15.278 14.1079 15.914 14.3998C16.5772 14.7233 17.2846 14.9546 17.927 15.3204C18.8984 15.8734 19.8425 17.0202 19.5382 18.2136C19.473 18.4743 19.3443 18.715 19.1633 18.9147C18.946 19.1544 18.5539 18.8376 18.7718 18.5972C19.1546 18.1751 19.1395 17.612 18.9355 17.108C18.693 16.54 18.2634 16.0708 17.7173 15.7771C17.0448 15.3951 16.3023 15.1593 15.613 14.8113C14.9533 14.4935 14.3806 14.022 13.9438 13.437C13.1188 12.298 12.872 10.8157 13.0591 9.44444C13.2616 7.96053 14.029 6.6121 14.991 5.48212C16.038 4.25238 17.324 3.21144 18.6377 2.27629C20.0474 1.27287 21.6048 0.42455 23.3282 0.117726C24.8222 -0.148243 26.4414 0.0155044 27.7478 0.824325C28.9672 1.57931 29.9023 2.87803 29.9953 4.32922C30.0287 4.98951 29.8844 5.64671 29.5772 6.23319C29.27 6.81967 28.8111 7.31424 28.2477 7.66601C27.6696 8.00973 26.9974 8.16443 26.326 8.1083C25.6083 8.06266 24.8899 7.84431 24.1676 7.90493C23.8407 7.92464 23.5292 8.04967 23.2803 8.26108C23.0334 8.47203 22.7392 8.06352 22.984 7.85429V7.85428Z" fill="#2F2E41"/>
<defs>
<filter id="filter0_d" x="0" y="56" width="28" height="32" filterUnits="userSpaceOnUse" color-interpolation-filters="sRGB">
<feFlood flood-opacity="0" result="BackgroundImageFix"/>
<feColorMatrix in="SourceAlpha" type="matrix" values="0 0 0 0 0 0 0 0 0 0 0 0 0 0 0 0 0 0 127 0"/>
<feOffset dy="4"/>
<feGaussianBlur stdDeviation="2"/>
<feColorMatrix type="matrix" values="0 0 0 0 0 0 0 0 0 0 0 0 0 0 0 0 0 0 0.25 0"/>
<feBlend mode="normal" in2="BackgroundImageFix" result="effect1_dropShadow"/>
<feBlend mode="normal" in="SourceGraphic" in2="effect1_dropShadow" result="shape"/>
</filter>
</defs>
</svg>
