<svg width="649" height="581" viewBox="0 0 649 581" fill="none" xmlns="http://www.w3.org/2000/svg">
<path d="M301.5 581C459.177 581 587 450.939 587 290.5C587 130.061 459.177 0 301.5 0C143.823 0 16 130.061 16 290.5C16 450.939 143.823 581 301.5 581Z" fill="#69F0AE"/>
<path d="M86.8584 560.32C134.829 560.32 173.717 553.981 173.717 546.16C173.717 538.34 134.829 532 86.8584 532C38.8878 532 0 538.34 0 546.16C0 553.981 38.8878 560.32 86.8584 560.32Z" fill="#F2F2F2"/>
<path d="M514.5 539C588.782 539 649 526.912 649 512C649 497.088 588.782 485 514.5 485C440.218 485 380 497.088 380 512C380 526.912 440.218 539 514.5 539Z" fill="#F2F2F2"/>
<path d="M484.601 306.095C484.601 306.095 485.745 309.981 479.261 313.479C472.777 316.976 470.87 330.189 478.498 334.075C486.126 337.962 488.415 343.014 484.601 346.511C480.787 350.009 473.922 359.335 483.075 361.667C492.229 363.999 493.373 368.662 490.703 370.605C488.033 372.548 496.806 367.108 496.806 367.108C496.806 367.108 498.331 376.435 506.341 374.103C514.35 371.771 536.853 327.469 525.411 321.251C513.969 315.033 484.601 306.095 484.601 306.095Z" fill="#2F2E41"/>
<path d="M498.424 343.62C498.424 343.62 502.381 357.729 495.457 358.737C491.161 359.419 487.089 361.147 483.588 363.775L496.446 380.908H520.184L535.02 365.791C535.02 365.791 515.239 350.674 519.195 341.604C523.151 332.534 498.424 343.62 498.424 343.62Z" fill="#FFB9B9"/>
<path opacity="0.1" d="M498.424 343.62C498.424 343.62 502.381 357.729 495.457 358.737C491.161 359.419 487.089 361.147 483.588 363.775L496.446 380.908H520.184L535.02 365.791C535.02 365.791 515.239 350.674 519.195 341.604C523.151 332.534 498.424 343.62 498.424 343.62Z" fill="black"/>
<path d="M504.358 518.974L527.107 527.036L542.932 528.043L541.943 513.935L509.303 504.099L504.358 518.974Z" fill="#FFB9B9"/>
<path d="M533.536 515.95C533.536 515.95 533.536 530.059 535.514 530.059C537.492 530.059 564.197 527.036 572.11 530.059C580.022 533.082 591.891 521.997 585.957 515.95C580.022 509.904 570.342 500.833 564.303 502.849C558.263 504.865 533.536 509.904 533.536 509.904V515.95Z" fill="#6C63FF"/>
<path d="M460.84 502.849C460.84 502.849 448.971 527.036 456.883 529.051C464.796 531.067 473.697 528.044 474.687 527.036C475.676 526.028 489.523 521.997 491.501 524.012C493.479 526.028 493.479 515.95 493.479 515.95L460.84 502.849Z" fill="#6C63FF"/>
<path d="M470.73 469.592C470.73 469.592 451.938 495.795 465.785 502.849C479.632 509.904 545.899 509.904 550.845 502.849C555.79 495.795 557.768 473.623 550.845 471.608C543.921 469.592 470.73 469.592 470.73 469.592Z" fill="#2F2E41"/>
<path opacity="0.2" d="M470.73 469.592C470.73 469.592 451.938 495.795 465.785 502.849C479.632 509.904 545.899 509.904 550.845 502.849C555.79 495.795 557.768 473.623 550.845 471.608C543.921 469.592 470.73 469.592 470.73 469.592Z" fill="black"/>
<path d="M506.337 350.674C518.901 350.674 529.086 340.297 529.086 327.495C529.086 314.694 518.901 304.316 506.337 304.316C493.773 304.316 483.588 314.694 483.588 327.495C483.588 340.297 493.773 350.674 506.337 350.674Z" fill="#FFB9B9"/>
<path d="M470.73 363.775L490.511 359.744C490.511 359.744 495.457 375.869 511.282 372.845C527.107 369.822 531.063 359.744 531.063 359.744C531.063 359.744 542.932 364.783 543.921 364.783C544.91 364.783 557.768 369.822 557.768 372.845C557.768 375.869 542.932 406.102 542.932 406.102L544.91 460.522L471.719 458.507L476.664 405.094L470.73 363.775Z" fill="#6C63FF"/>
<path d="M459.85 389.978C459.85 389.978 453.916 443.39 457.872 447.421C461.828 451.452 477.653 462.538 477.653 462.538V450.445L469.741 435.328L477.653 400.056L459.85 389.978Z" fill="#FFB9B9"/>
<path d="M562.219 388.466C562.219 388.466 558.757 443.39 558.757 445.406C558.757 447.421 549.856 454.476 546.888 454.476C543.921 454.476 541.943 449.437 541.943 449.437L548.867 441.374L543.921 400.055L562.219 388.466Z" fill="#FFB9B9"/>
<path d="M552.823 465.561C552.823 465.561 597.331 440.367 598.321 465.561C599.31 490.756 575.572 500.834 575.572 500.834C575.572 500.834 514.25 519.57 511.777 512.721C509.304 505.872 504.359 494.787 508.315 493.779C512.272 492.771 517.217 490.756 519.195 492.771C521.173 494.787 545.9 477.655 545.9 477.655L552.823 465.561Z" fill="#2F2E41"/>
<path opacity="0.2" d="M573.594 462.538C573.594 462.538 564.692 466.569 561.725 469.592C558.758 472.616 545.9 477.655 545.9 477.655" stroke="black" stroke-width="2" stroke-miterlimit="10"/>
<path d="M476.665 365.791L470.73 363.775C470.73 363.775 448.971 386.954 455.894 393.001C462.818 399.048 466.774 401.063 468.752 403.079C470.73 405.094 480.621 406.102 480.621 406.102L476.665 365.791Z" fill="#6C63FF"/>
<path d="M548.867 370.83L557.768 372.845C557.768 372.845 564.692 387.962 566.67 389.978C568.648 391.993 563.703 390.985 560.735 395.017C557.768 399.048 554.801 406.102 548.867 406.102C542.932 406.102 535.02 396.024 535.02 396.024L548.867 370.83Z" fill="#6C63FF"/>
<path d="M472.709 474.631C472.709 474.631 435.124 447.421 422.266 467.577C409.408 487.732 477.654 514.942 487.545 518.974C497.436 523.005 506.337 527.036 506.337 527.036C506.337 527.036 515.239 504.865 515.239 500.834C515.239 496.802 508.315 496.802 506.337 496.802C504.359 496.802 495.457 494.787 493.479 491.764C491.501 488.74 472.709 474.631 472.709 474.631Z" fill="#2F2E41"/>
<path opacity="0.2" d="M451.938 467.577C451.938 467.577 461.829 475.639 470.73 477.655C479.632 479.67 482.599 484.709 482.599 484.709" stroke="black" stroke-width="2" stroke-miterlimit="10"/>
<path d="M465.885 429.685L466.676 472.354C466.702 473.764 467.273 475.106 468.266 476.087C469.259 477.069 470.593 477.611 471.976 477.595L549.908 476.703C551.236 476.688 552.508 476.16 553.469 475.225C554.429 474.291 555.006 473.02 555.083 471.669L557.448 429.892C557.489 429.165 557.384 428.438 557.14 427.755C556.896 427.071 556.517 426.446 556.027 425.917C555.537 425.388 554.946 424.967 554.29 424.679C553.635 424.391 552.928 424.242 552.214 424.242H471.127C470.43 424.242 469.74 424.384 469.098 424.659C468.455 424.933 467.873 425.336 467.385 425.843C466.897 426.349 466.513 426.95 466.256 427.61C465.998 428.269 465.872 428.975 465.885 429.685Z" fill="#575A89"/>
<path d="M507.553 298.378C507.553 298.378 508.82 302.683 501.638 306.558C494.455 310.432 492.342 325.07 500.793 329.375C509.243 333.68 511.778 339.276 507.553 343.151C503.328 347.026 495.722 357.358 505.863 359.941C516.003 362.524 517.271 367.69 514.313 369.843C511.355 371.995 521.073 365.968 521.073 365.968C521.073 365.968 522.763 376.3 531.636 373.717C540.509 371.134 549.362 324.18 539.471 312.087C530.275 300.842 507.553 298.378 507.553 298.378Z" fill="#2F2E41"/>
<path d="M504.853 293.947C504.855 287.64 523.374 292.172 531.314 300.978C536.812 307.076 545.164 316.251 538.166 322.718C531.167 329.185 550.161 337.663 555.255 340.233C560.349 342.803 570.407 350.664 561.325 355.937C552.244 361.21 552.39 366.533 555.808 367.793C559.226 369.053 548.273 365.919 548.273 365.919C548.273 365.919 549.379 376.333 540.152 376.283C530.924 376.233 504.45 324.561 510.775 310.198C516.655 296.844 504.853 293.947 504.853 293.947Z" fill="#2F2E41"/>
<path d="M508.865 292.565C484.1 291.045 481.614 310.039 481.614 310.039C481.786 321.031 498.917 315.675 503.676 317.314C509.416 313.106 520.481 305.145 528.395 299.463C522.649 295.341 515.881 292.951 508.865 292.565Z" fill="#2F2E41"/>
<path d="M501.809 413.77C501.809 413.77 479.595 307.688 340.55 230.734" stroke="#3F3D56" stroke-width="2" stroke-miterlimit="10"/>
<path d="M346.279 228.421L346.557 229.584L340.933 230.973L342.705 236.588L341.587 236.953L339.43 230.115L346.279 228.421Z" fill="#3F3D56"/>
<path d="M127.574 518.682L131.319 515.846C131.319 515.846 133.798 529.957 131.032 532.071C128.265 534.185 117.891 537.709 117.891 541.937C117.891 546.165 94.3759 551.803 93.6843 545.46C92.9927 539.118 95.7591 535.595 95.7591 535.595C95.7591 535.595 106.825 524.319 108.208 522.205C109.591 520.091 113.05 515.863 113.05 515.863L127.574 518.682Z" fill="#161C1E"/>
<path d="M72.2441 343.211C72.2441 343.211 72.3479 343.831 72.5276 344.966C72.6937 345.974 72.9219 347.397 73.1986 349.152C76.1034 367.213 84.5757 420.383 84.0016 422.138C83.31 424.252 78.4687 432.004 84.0016 434.118C84.5342 434.322 85.1082 434.984 85.7237 436.027C86.9118 438.274 87.8912 440.628 88.6493 443.06C91.9483 452.813 95.4756 468.422 97.5158 479.233C98.408 483.982 99.0166 487.802 99.1964 489.803C99.2589 490.266 99.2659 490.734 99.2172 491.198C98.5256 494.017 103.367 503.883 105.442 506.702C107.517 509.521 110.975 512.339 110.283 515.158C109.591 517.977 127.573 525.729 129.648 520.796C131.723 515.863 131.723 513.044 132.415 511.635C133.106 510.225 133.798 500.36 130.34 498.95C126.882 497.541 128.957 472.876 125.499 467.943C124.344 466.301 122.58 460.741 120.733 454.054C120.007 451.432 119.274 448.642 118.555 445.844C115.636 434.378 113.05 422.842 113.05 422.842L113.741 340.392L75.7022 335.46L74.7271 337.651L72.7836 341.999L72.2441 343.211Z" fill="#2F2E41"/>
<path d="M70.1692 478.514C70.1692 478.514 64.6362 472.876 61.8698 478.514C59.1033 484.151 56.3368 505.997 51.4955 510.93C46.6542 515.863 40.4297 540.527 47.3458 541.937C54.262 543.346 61.8698 539.823 62.5614 535.595C63.253 531.366 77.7769 509.521 77.7769 507.407C77.7769 505.292 68.0943 497.541 68.0943 497.541L70.1692 478.514Z" fill="#17282F"/>
<path d="M155.238 304.453C155.238 304.453 146.247 386.903 144.172 394.654C142.097 402.406 131.031 432.004 127.573 436.936C124.115 441.869 101.983 482.037 99.2168 484.151C96.4503 486.265 90.9174 491.903 90.9174 491.903C90.9174 491.903 80.5432 502.474 79.1599 504.588C77.7767 506.702 66.0192 500.36 65.3276 496.131C64.636 491.903 66.0192 484.856 66.7108 482.037C67.4024 479.218 65.3276 474.99 67.4024 472.876C69.4773 470.762 79.8515 460.192 79.8515 455.259C79.8515 450.326 97.8336 421.433 104.75 415.091C111.666 408.748 110.283 398.178 110.283 398.178V355.191L72.2438 343.211C72.2438 343.211 74.3186 309.386 79.1599 309.386C84.0012 309.386 147.63 298.11 155.238 304.453Z" fill="#2F2E41"/>
<path d="M99.2166 186.768C111.822 186.768 122.04 176.356 122.04 163.513C122.04 150.669 111.822 140.257 99.2166 140.257C86.6116 140.257 76.3932 150.669 76.3932 163.513C76.3932 176.356 86.6116 186.768 99.2166 186.768Z" fill="#9F616A"/>
<path d="M106.824 181.835C106.824 181.835 109.591 192.405 113.049 195.224C116.507 198.043 104.058 210.023 104.058 210.023L80.5429 211.432L76.3932 198.043C76.3932 198.043 84.001 182.539 81.9262 172.674C79.8513 162.808 106.824 181.835 106.824 181.835Z" fill="#9F616A"/>
<path d="M116.508 193.815C116.508 193.815 110.283 194.519 108.9 196.634C107.517 198.748 97.8339 205.09 90.2262 203.681C82.6184 202.271 77.7771 200.157 76.3938 200.862C75.0106 201.566 72.2441 216.365 72.2441 216.365L79.8519 238.916L78.4687 300.929L76.3938 317.842C76.3938 317.842 72.2441 312.204 88.8429 315.728C105.442 319.251 126.882 312.909 133.798 312.204C140.714 311.5 152.472 309.386 153.163 305.157C153.855 300.929 151.088 285.426 151.088 285.426L140.023 238.211L133.106 212.842L116.508 193.815Z" fill="#6C63FF"/>
<path d="M109.966 190.634C109.966 190.634 115.816 187.472 117.891 190.291C119.966 193.11 146.247 197.338 146.247 199.452C146.247 201.566 151.78 258.647 150.397 263.58C149.013 268.513 153.163 274.151 153.163 274.151L158.004 295.292C158.004 295.292 171.145 335.46 165.612 336.869C160.079 338.278 155.238 336.869 153.163 336.869C151.088 336.869 151.78 310.09 146.247 303.043C140.714 295.996 133.106 278.379 131.723 274.855C130.34 271.332 113.049 222.707 113.741 217.07C114.433 211.432 109.966 190.634 109.966 190.634Z" fill="white"/>
<path d="M81.2345 193.815C81.2345 193.815 75.7016 193.815 75.01 195.224C74.3184 196.634 67.4022 205.795 64.6357 207.909C61.8693 210.023 52.1866 219.184 52.1866 221.298C52.1866 223.412 72.2435 238.916 72.2435 238.916C72.2435 238.916 80.5429 280.493 76.3932 294.587C72.2435 308.681 66.019 342.507 68.7854 344.621C71.5519 346.735 77.7764 347.439 77.7764 344.621C77.7764 341.802 81.9262 311.5 85.3842 305.157C88.8423 298.815 99.2166 258.647 95.0669 247.372C90.9172 236.097 81.2345 193.815 81.2345 193.815Z" fill="white"/>
<path d="M172.528 263.58C172.528 263.58 173.22 285.426 165.612 296.701C158.004 307.976 153.163 320.661 153.163 320.661C153.163 320.661 140.714 317.137 138.639 312.909C136.564 308.681 123.423 312.204 123.423 310.795C123.423 309.386 139.33 302.339 140.714 300.929C142.097 299.52 146.938 299.52 149.705 296.701C152.471 293.882 153.163 287.54 153.163 287.54L155.929 269.218L172.528 263.58Z" fill="#9F616A"/>
<path d="M114.937 149.174C116.692 149.011 118.503 148.833 120.055 147.98C123.532 146.069 124.454 140.628 121.807 137.64C121.077 136.88 120.261 136.211 119.376 135.648L114.118 132.002C111.793 130.39 109.413 128.751 106.701 127.99C104.248 127.303 101.658 127.374 99.1188 127.534C94.1898 127.847 89.2303 128.491 84.5943 130.225C79.9583 131.959 75.6337 134.86 72.8259 139C68.3747 145.562 68.3135 154.413 70.7651 161.989C73.2167 169.565 77.8736 176.162 82.4623 182.625L84.8432 170.788C85.0553 169.734 85.3295 168.578 86.1901 167.954C88.329 166.403 90.9454 169.588 93.5705 169.567C95.2572 169.554 96.6734 168.14 97.3126 166.55C97.9518 164.959 97.9939 163.198 98.1418 161.486C98.455 157.859 99.699 152.814 103.069 150.814C106.21 148.95 111.406 149.501 114.937 149.174Z" fill="#2F2E41"/>
<path opacity="0.1" d="M113.656 343.78C113.656 343.78 111.32 412.624 109.937 414.738C108.553 416.853 109.937 343.564 109.937 343.564L113.656 343.78Z" fill="black"/>
<path d="M140.714 199.452H146.247C146.247 199.452 169.762 231.869 166.995 233.983C164.229 236.097 166.995 241.734 166.995 241.734L172.528 252.305C172.528 252.305 179.445 258.647 177.37 260.057C175.295 261.466 172.528 267.104 172.528 267.104C172.528 267.104 158.696 264.989 154.546 273.446L145.576 261.907L140.714 199.452Z" fill="white"/>
<path d="M142.67 209.879L123.684 217.867L138.294 253.917L157.28 245.929L142.67 209.879Z" fill="#2F2E41"/>
<path d="M140.444 231.022C142.541 230.14 143.596 227.833 142.801 225.871C142.005 223.908 139.66 223.032 137.563 223.914C135.466 224.796 134.411 227.103 135.206 229.066C136.002 231.029 138.347 231.905 140.444 231.022Z" fill="#6C63FF"/>
<path d="M126.881 255.828C126.881 255.828 77.0847 298.11 68.7853 284.721C60.4859 271.332 77.7763 260.057 77.7763 260.057C77.7763 260.057 92.9919 260.761 110.282 249.486L127.573 241.734C127.573 241.734 143.357 218.772 148.736 227.516C154.115 236.26 139.555 251.478 126.881 255.828Z" fill="#9F616A"/>
<path d="M59.7951 218.479L52.1874 221.298V242.439L49.4209 246.667C49.4209 246.667 50.1125 255.124 52.1874 257.238C54.2622 259.352 58.4119 258.647 57.0287 263.58C56.1973 266.796 55.9628 270.142 56.3371 273.446C56.3371 273.446 68.7861 289.654 69.4778 287.54C70.1694 285.426 79.852 259.352 81.2352 259.352C82.6185 259.352 67.4029 218.479 67.4029 218.479H59.7951Z" fill="white"/>
<path d="M150.743 325.241C150.743 325.241 157.894 318.194 154.318 317.842C150.743 317.49 138.293 310.443 136.219 313.966C134.144 317.49 150.743 325.241 150.743 325.241Z" fill="#2F2E41"/>
<path d="M286.751 190.813C292.261 190.813 296.728 188.403 296.728 185.431C296.728 182.459 292.261 180.049 286.751 180.049C281.241 180.049 276.774 182.459 276.774 185.431C276.774 188.403 281.241 190.813 286.751 190.813Z" fill="#57B894"/>
<path d="M324.898 203.371C302.401 194.713 279.904 194.713 257.407 203.371V175.265C279.414 168.499 302.891 168.499 324.898 175.265V203.371Z" fill="#00BFA6" stroke="#3F3D56" stroke-width="2" stroke-miterlimit="10"/>
<path d="M315.508 197.558C299.271 191.31 283.034 191.31 266.797 197.558V177.274C282.68 172.39 299.625 172.39 315.508 177.274V197.558Z" fill="#33535F" stroke="#3F3D56" stroke-width="2" stroke-miterlimit="10"/>
<path d="M290.272 188.421C295.782 188.421 300.249 186.012 300.249 183.039C300.249 180.067 295.782 177.657 290.272 177.657C284.762 177.657 280.295 180.067 280.295 183.039C280.295 186.012 284.762 188.421 290.272 188.421Z" fill="#69F0AE" stroke="#3F3D56" stroke-width="2" stroke-miterlimit="10"/>
<path d="M294.087 224.518C299.486 223.395 303.39 220.124 302.806 217.212C302.223 214.299 297.374 212.849 291.975 213.971C286.576 215.094 282.672 218.365 283.255 221.277C283.839 224.19 288.688 225.64 294.087 224.518Z" fill="#57B894"/>
<path d="M332.644 229.038C308.902 225.139 286.86 229.723 266.516 242.79L261 215.252C281.235 204.139 304.238 199.355 327.128 201.501L332.644 229.038Z" fill="#00BFA6" stroke="#3F3D56" stroke-width="2" stroke-miterlimit="10"/>
<path d="M322.304 225.256C305.168 222.443 289.259 225.751 274.576 235.182L270.595 215.307C285.199 207.286 301.801 203.833 318.322 205.382L322.304 225.256Z" fill="#33535F" stroke="#3F3D56" stroke-width="2" stroke-miterlimit="10"/>
<path d="M297.068 221.456C302.467 220.334 306.37 217.063 305.787 214.15C305.204 211.238 300.354 209.787 294.955 210.91C289.556 212.033 285.653 215.304 286.236 218.216C286.819 221.128 291.669 222.579 297.068 221.456Z" fill="#69F0AE" stroke="#3F3D56" stroke-width="2" stroke-miterlimit="10"/>
<path d="M300.915 253.401C301.117 250.436 296.825 247.716 291.329 247.326C285.832 246.937 281.211 249.024 281.009 251.99C280.806 254.955 285.098 257.674 290.595 258.064C296.092 258.454 300.712 256.366 300.915 253.401Z" fill="#57B894"/>
<path d="M327.794 273.29C305.941 263.062 283.499 261.471 260.466 268.516L262.381 240.478C284.796 235.285 308.216 236.946 329.709 245.252L327.794 273.29Z" fill="#00BFA6" stroke="#3F3D56" stroke-width="2" stroke-miterlimit="10"/>
<path d="M318.824 266.827C303.051 259.445 286.853 258.297 270.23 263.382L271.612 243.146C287.79 239.398 304.693 240.596 320.206 246.592L318.824 266.827Z" fill="#33535F" stroke="#3F3D56" stroke-width="2" stroke-miterlimit="10"/>
<path d="M304.59 251.264C304.792 248.299 300.5 245.579 295.004 245.189C289.507 244.8 284.887 246.887 284.684 249.852C284.482 252.818 288.774 255.537 294.27 255.927C299.767 256.317 304.387 254.229 304.59 251.264Z" fill="#69F0AE" stroke="#3F3D56" stroke-width="2" stroke-miterlimit="10"/>
<path d="M247.384 204.023C247.384 204.023 204.25 198.011 173.448 216.404" stroke="#3F3D56" stroke-width="2" stroke-miterlimit="10"/>
<path d="M174.485 210.223L175.606 210.584L173.855 216.204L179.485 217.573L179.211 218.738L172.354 217.069L174.485 210.223Z" fill="#3F3D56"/>
</svg>
