<svg width="1039" height="460" viewBox="0 0 1039 460" fill="none" xmlns="http://www.w3.org/2000/svg">
<path d="M119.928 300.105H171.954V452.115H119.928V300.105Z" fill="#6C63FF"/>
<path d="M119.928 300.105H249.969V325.534H119.928V300.105Z" fill="#6C63FF"/>
<path d="M119.928 426.687H249.968V452.115H119.928V426.687Z" fill="#6C63FF"/>
<path d="M172.373 376.11L198.071 349.838V402.382L172.373 376.11Z" fill="#6C63FF"/>
<path fill-rule="evenodd" clip-rule="evenodd" d="M249.968 300.105H197.942V452.115H249.968V394.721L230.382 376.11L249.968 357.5V300.105Z" fill="#6C63FF"/>
<path fill-rule="evenodd" clip-rule="evenodd" d="M102.025 300.105H50V324.899L102.025 351.149L50 377.399V452.115H102.025V351.149V300.105Z" fill="#3F3D56"/>
<path d="M319.133 394.927H271.089V376.29H283.1V320.377H271.089V301.74H319.133V320.377H307.122V376.29H319.133V394.927Z" fill="#3F3D56"/>
<path d="M411.207 343.008L392.523 376.29H373.839L355.155 343.008V394.927H331.134V301.74H356.49L383.181 350.996L409.872 301.74H435.228V394.927H411.207V343.008Z" fill="#3F3D56"/>
<path d="M523.361 393.596C503.521 395.371 487.061 396.258 473.983 396.258C465.263 396.258 458.858 394.217 454.765 390.135C450.672 386.052 448.626 379.662 448.626 370.965V328.365C448.626 319.046 450.717 312.301 454.898 308.13C459.169 303.87 465.975 301.74 475.317 301.74H523.361V320.377H480.655C475.317 320.377 472.648 323.04 472.648 328.365V370.965C472.648 373.006 473.226 374.648 474.383 375.89C475.628 377.044 477.185 377.621 479.054 377.621C480.922 377.621 482.968 377.621 485.193 377.621C487.417 377.532 489.73 377.443 492.132 377.355C494.535 377.266 496.937 377.177 499.339 377.088C501.83 377 504.989 376.822 508.814 376.556C512.729 376.29 517.578 375.979 523.361 375.624V393.596Z" fill="#3F3D56"/>
<path d="M550.735 394.927H524.711L560.077 301.74H586.768L622.133 394.927H596.109L590.104 378.286H556.74L550.735 394.927ZM562.746 360.98H584.099L573.422 329.696L562.746 360.98Z" fill="#3F3D56"/>
<path d="M668.811 301.74H722.193C730.912 301.74 737.318 303.737 741.411 307.73C745.503 311.635 747.55 317.626 747.55 325.702C747.55 331.027 746.393 335.376 744.08 338.748C741.767 342.032 738.92 344.34 735.539 345.671C742.745 347.623 747.639 352.416 750.219 360.048C751.108 362.8 751.553 365.995 751.553 369.633C751.553 378.331 749.507 384.721 745.414 388.803C741.322 392.886 734.916 394.927 726.197 394.927H668.811V301.74ZM727.531 365.64C727.531 360.315 724.862 357.652 719.524 357.652H692.833V376.29H719.524C724.862 376.29 727.531 373.627 727.531 368.302V365.64ZM723.528 328.365C723.528 323.04 720.859 320.377 715.52 320.377H692.833V339.015H715.52C720.859 339.015 723.528 336.352 723.528 331.027V328.365Z" fill="#3F3D56"/>
<path d="M780.241 394.927H754.217L789.583 301.74H816.274L851.639 394.927H825.616L819.61 378.286H786.246L780.241 394.927ZM792.252 360.98H813.605L802.928 329.696L792.252 360.98Z" fill="#3F3D56"/>
<path d="M939.714 394.927H914.358L882.329 339.015V394.927H858.307V301.74H883.663L915.693 357.652V301.74H939.714V394.927Z" fill="#3F3D56"/>
<path d="M979.813 394.927H955.792V301.74H979.813V338.349H991.824L1012.64 301.74H1038L1011.84 347.668L1037.87 394.927H1012.51L991.824 356.986H979.813V394.927Z" fill="#3F3D56"/>
<path d="M274.414 421.286L285.367 447.494L296.36 421.286H299.705V450.982H297.196V438.051L297.4 424.794L286.346 450.982H284.408L273.394 424.896L273.598 437.969V450.982H271.089V421.286H274.414Z" fill="#6C63FF"/>
<path d="M326.021 450.982C325.777 450.288 325.62 449.262 325.552 447.902C324.696 449.017 323.601 449.88 322.268 450.492C320.949 451.09 319.549 451.39 318.067 451.39C315.946 451.39 314.225 450.798 312.906 449.615C311.601 448.432 310.948 446.936 310.948 445.128C310.948 442.98 311.839 441.28 313.62 440.029C315.415 438.778 317.91 438.153 321.106 438.153H325.532V435.644C325.532 434.067 325.042 432.83 324.063 431.932C323.098 431.021 321.684 430.566 319.821 430.566C318.121 430.566 316.714 431.001 315.599 431.871C314.484 432.741 313.926 433.788 313.926 435.012L311.479 434.991C311.479 433.237 312.295 431.721 313.926 430.443C315.558 429.151 317.564 428.506 319.943 428.506C322.404 428.506 324.342 429.124 325.756 430.362C327.184 431.585 327.918 433.299 327.959 435.501V445.944C327.959 448.079 328.183 449.676 328.632 450.737V450.982H326.021ZM318.352 449.228C319.984 449.228 321.439 448.833 322.717 448.045C324.009 447.256 324.947 446.202 325.532 444.883V440.029H321.167C318.733 440.056 316.829 440.505 315.456 441.375C314.083 442.232 313.396 443.415 313.396 444.924C313.396 446.161 313.852 447.188 314.763 448.004C315.687 448.82 316.884 449.228 318.352 449.228Z" fill="#6C63FF"/>
<path d="M345.158 439.866L342.364 442.558V450.982H339.916V419.654H342.364V439.703L344.668 437.215L353.112 428.914H356.192L346.83 438.214L357.008 450.982H354.091L345.158 439.866Z" fill="#6C63FF"/>
<path d="M368.557 450.982H366.11V428.914H368.557V450.982ZM365.681 422.53C365.681 422.067 365.831 421.68 366.13 421.367C366.429 421.041 366.837 420.878 367.354 420.878C367.871 420.878 368.279 421.041 368.578 421.367C368.89 421.68 369.047 422.067 369.047 422.53C369.047 422.992 368.89 423.38 368.578 423.692C368.279 424.005 367.871 424.161 367.354 424.161C366.837 424.161 366.429 424.005 366.13 423.692C365.831 423.38 365.681 422.992 365.681 422.53Z" fill="#6C63FF"/>
<path d="M382.962 428.914L383.044 432.687C383.873 431.327 384.906 430.294 386.144 429.587C387.381 428.866 388.748 428.506 390.243 428.506C392.609 428.506 394.37 429.172 395.526 430.504C396.682 431.837 397.267 433.836 397.28 436.501V450.982H394.853V436.48C394.839 434.509 394.418 433.04 393.588 432.075C392.773 431.109 391.46 430.627 389.652 430.627C388.143 430.627 386.803 431.103 385.634 432.054C384.478 432.993 383.621 434.264 383.064 435.868V450.982H380.637V428.914H382.962Z" fill="#6C63FF"/>
<path d="M408.054 439.744C408.054 436.29 408.816 433.557 410.339 431.545C411.875 429.519 413.956 428.506 416.58 428.506C419.585 428.506 421.869 429.702 423.433 432.095L423.555 428.914H425.84V450.533C425.84 453.375 425.044 455.625 423.453 457.284C421.863 458.943 419.707 459.772 416.988 459.772C415.451 459.772 413.983 459.425 412.582 458.732C411.195 458.052 410.101 457.141 409.298 455.999L410.665 454.53C412.392 456.652 414.445 457.712 416.825 457.712C418.864 457.712 420.455 457.107 421.597 455.897C422.74 454.7 423.331 453.035 423.372 450.9V448.126C421.808 450.302 419.531 451.39 416.539 451.39C413.983 451.39 411.93 450.37 410.379 448.33C408.829 446.291 408.054 443.537 408.054 440.07V439.744ZM410.522 440.172C410.522 442.987 411.087 445.21 412.215 446.841C413.344 448.459 414.935 449.268 416.988 449.268C419.993 449.268 422.121 447.922 423.372 445.23V434.971C422.801 433.557 421.978 432.483 420.904 431.749C419.83 431.001 418.538 430.627 417.029 430.627C414.975 430.627 413.378 431.436 412.235 433.054C411.093 434.658 410.522 437.031 410.522 440.172Z" fill="#6C63FF"/>
<path d="M453.792 450.982V421.286H462.563C465.745 421.286 468.158 421.945 469.804 423.264C471.449 424.569 472.272 426.5 472.272 429.056C472.272 430.593 471.85 431.932 471.007 433.074C470.177 434.203 469.035 435.012 467.58 435.501C469.307 435.882 470.694 436.732 471.741 438.051C472.802 439.37 473.332 440.893 473.332 442.619C473.332 445.244 472.482 447.297 470.783 448.779C469.096 450.247 466.744 450.982 463.725 450.982H453.792ZM456.301 436.705V448.86H463.827C465.976 448.86 467.676 448.317 468.927 447.229C470.191 446.127 470.823 444.605 470.823 442.66C470.823 440.825 470.218 439.377 469.008 438.316C467.812 437.242 466.153 436.705 464.031 436.705H456.301ZM456.301 434.604H463.154C465.248 434.563 466.866 434.074 468.009 433.135C469.164 432.184 469.742 430.804 469.742 428.995C469.742 427.092 469.144 425.691 467.947 424.794C466.765 423.883 464.97 423.427 462.563 423.427H456.301V434.604Z" fill="#6C63FF"/>
<path d="M498.2 450.982C497.955 450.288 497.799 449.262 497.731 447.902C496.874 449.017 495.78 449.88 494.447 450.492C493.128 451.09 491.728 451.39 490.246 451.39C488.124 451.39 486.404 450.798 485.085 449.615C483.78 448.432 483.127 446.936 483.127 445.128C483.127 442.98 484.018 441.28 485.799 440.029C487.594 438.778 490.089 438.153 493.285 438.153H497.711V435.644C497.711 434.067 497.221 432.83 496.242 431.932C495.277 431.021 493.862 430.566 492 430.566C490.3 430.566 488.893 431.001 487.778 431.871C486.663 432.741 486.105 433.788 486.105 435.012L483.658 434.991C483.658 433.237 484.473 431.721 486.105 430.443C487.737 429.151 489.742 428.506 492.122 428.506C494.583 428.506 496.521 429.124 497.935 430.362C499.363 431.585 500.097 433.299 500.138 435.501V445.944C500.138 448.079 500.362 449.676 500.811 450.737V450.982H498.2ZM490.531 449.228C492.163 449.228 493.618 448.833 494.896 448.045C496.188 447.256 497.126 446.202 497.711 444.883V440.029H493.346C490.912 440.056 489.008 440.505 487.635 441.375C486.261 442.232 485.575 443.415 485.575 444.924C485.575 446.161 486.03 447.188 486.941 448.004C487.866 448.82 489.063 449.228 490.531 449.228Z" fill="#6C63FF"/>
<path d="M514.42 428.914L514.502 432.687C515.331 431.327 516.364 430.294 517.602 429.587C518.839 428.866 520.206 428.506 521.701 428.506C524.067 428.506 525.828 429.172 526.984 430.504C528.14 431.837 528.725 433.836 528.738 436.501V450.982H526.311V436.48C526.297 434.509 525.876 433.04 525.046 432.075C524.231 431.109 522.918 430.627 521.11 430.627C519.601 430.627 518.261 431.103 517.092 432.054C515.936 432.993 515.079 434.264 514.522 435.868V450.982H512.095V428.914H514.42Z" fill="#6C63FF"/>
<path d="M545.733 439.866L542.939 442.558V450.982H540.491V419.654H542.939V439.703L545.244 437.215L553.688 428.914H556.768L547.406 438.214L557.583 450.982H554.667L545.733 439.866Z" fill="#6C63FF"/>
<path d="M569.133 450.982H566.685V428.914H569.133V450.982ZM566.257 422.53C566.257 422.067 566.406 421.68 566.705 421.367C567.005 421.041 567.412 420.878 567.929 420.878C568.446 420.878 568.854 421.041 569.153 421.367C569.466 421.68 569.622 422.067 569.622 422.53C569.622 422.992 569.466 423.38 569.153 423.692C568.854 424.005 568.446 424.161 567.929 424.161C567.412 424.161 567.005 424.005 566.705 423.692C566.406 423.38 566.257 422.992 566.257 422.53Z" fill="#6C63FF"/>
<path d="M583.537 428.914L583.619 432.687C584.448 431.327 585.482 430.294 586.719 429.587C587.956 428.866 589.323 428.506 590.819 428.506C593.185 428.506 594.946 429.172 596.101 430.504C597.257 431.837 597.842 433.836 597.855 436.501V450.982H595.428V436.48C595.415 434.509 594.993 433.04 594.164 432.075C593.348 431.109 592.036 430.627 590.227 430.627C588.718 430.627 587.379 431.103 586.209 432.054C585.053 432.993 584.197 434.264 583.639 435.868V450.982H581.212V428.914H583.537Z" fill="#6C63FF"/>
<path d="M608.63 439.744C608.63 436.29 609.391 433.557 610.914 431.545C612.45 429.519 614.531 428.506 617.155 428.506C620.16 428.506 622.445 429.702 624.008 432.095L624.131 428.914H626.415V450.533C626.415 453.375 625.62 455.625 624.029 457.284C622.438 458.943 620.283 459.772 617.563 459.772C616.027 459.772 614.558 459.425 613.158 458.732C611.771 458.052 610.676 457.141 609.874 455.999L611.24 454.53C612.967 456.652 615.02 457.712 617.4 457.712C619.44 457.712 621.03 457.107 622.173 455.897C623.315 454.7 623.906 453.035 623.947 450.9V448.126C622.383 450.302 620.106 451.39 617.114 451.39C614.558 451.39 612.505 450.37 610.955 448.33C609.405 446.291 608.63 443.537 608.63 440.07V439.744ZM611.098 440.172C611.098 442.987 611.662 445.21 612.79 446.841C613.919 448.459 615.51 449.268 617.563 449.268C620.568 449.268 622.696 447.922 623.947 445.23V434.971C623.376 433.557 622.553 432.483 621.479 431.749C620.405 431.001 619.113 430.627 617.604 430.627C615.551 430.627 613.953 431.436 612.811 433.054C611.669 434.658 611.098 437.031 611.098 440.172Z" fill="#6C63FF"/>
<path d="M670.766 436.745H656.877V448.86H672.847V450.982H654.368V421.286H672.745V423.427H656.877V434.624H670.766V436.745Z" fill="#6C63FF"/>
<path d="M696.94 450.982C696.695 450.288 696.539 449.262 696.471 447.902C695.614 449.017 694.519 449.88 693.187 450.492C691.868 451.09 690.467 451.39 688.985 451.39C686.864 451.39 685.144 450.798 683.825 449.615C682.52 448.432 681.867 446.936 681.867 445.128C681.867 442.98 682.757 441.28 684.539 440.029C686.334 438.778 688.829 438.153 692.024 438.153H696.45V435.644C696.45 434.067 695.961 432.83 694.982 431.932C694.016 431.021 692.602 430.566 690.739 430.566C689.04 430.566 687.632 431.001 686.517 431.871C685.402 432.741 684.845 433.788 684.845 435.012L682.397 434.991C682.397 433.237 683.213 431.721 684.845 430.443C686.476 429.151 688.482 428.506 690.862 428.506C693.323 428.506 695.26 429.124 696.675 430.362C698.102 431.585 698.837 433.299 698.877 435.501V445.944C698.877 448.079 699.102 449.676 699.55 450.737V450.982H696.94ZM689.271 449.228C690.902 449.228 692.357 448.833 693.636 448.045C694.927 447.256 695.866 446.202 696.45 444.883V440.029H692.085C689.651 440.056 687.748 440.505 686.374 441.375C685.001 442.232 684.314 443.415 684.314 444.924C684.314 446.161 684.77 447.188 685.681 448.004C686.606 448.82 687.802 449.228 689.271 449.228Z" fill="#6C63FF"/>
<path d="M724.051 445.373C724.051 444.163 723.562 443.19 722.583 442.456C721.617 441.722 720.156 441.151 718.197 440.743C716.239 440.322 714.717 439.846 713.629 439.315C712.555 438.771 711.752 438.112 711.222 437.337C710.705 436.562 710.447 435.624 710.447 434.522C710.447 432.782 711.174 431.347 712.629 430.219C714.084 429.077 715.947 428.506 718.218 428.506C720.679 428.506 722.651 429.118 724.133 430.341C725.629 431.551 726.376 433.135 726.376 435.093H723.929C723.929 433.802 723.385 432.728 722.297 431.871C721.223 431.014 719.863 430.586 718.218 430.586C716.613 430.586 715.322 430.946 714.343 431.667C713.377 432.374 712.894 433.299 712.894 434.441C712.894 435.542 713.296 436.399 714.098 437.011C714.914 437.609 716.389 438.16 718.524 438.663C720.672 439.166 722.277 439.703 723.337 440.274C724.412 440.845 725.207 441.532 725.724 442.334C726.24 443.136 726.499 444.108 726.499 445.25C726.499 447.113 725.744 448.602 724.235 449.717C722.739 450.832 720.781 451.39 718.361 451.39C715.791 451.39 713.704 450.771 712.099 449.534C710.508 448.283 709.713 446.705 709.713 444.802H712.16C712.255 446.229 712.854 447.344 713.955 448.147C715.07 448.935 716.539 449.33 718.361 449.33C720.06 449.33 721.434 448.956 722.481 448.208C723.528 447.46 724.051 446.515 724.051 445.373Z" fill="#6C63FF"/>
<path d="M744.432 447.474L750.877 428.914H753.508L744.085 454.734L743.596 455.877C742.386 458.555 740.516 459.895 737.987 459.895C737.402 459.895 736.777 459.799 736.11 459.609L736.09 457.59L737.354 457.712C738.551 457.712 739.517 457.413 740.251 456.815C740.999 456.23 741.631 455.217 742.148 453.776L743.229 450.798L734.907 428.914H737.579L744.432 447.474Z" fill="#6C63FF"/>
<path d="M433.936 80.4262V67.2117H367.802V68.0381V80.4262V186.967V200.182H381.029H433.936V186.967H381.029V80.4262H433.936Z" fill="#3F3D56"/>
<path d="M466.176 67.2119V200.181H532.31V67.2119H466.176ZM519.083 186.967H479.403V80.4263H519.083V186.967Z" fill="#6C63FF"/>
<path d="M282.655 186.967V68.0381H269.428V186.967V200.182H282.655H335.562V186.967H282.655Z" fill="#6C63FF"/>
<path d="M239.669 80.4262V67.2117H173.535V68.0381V80.4262V126.677V139.891V186.967V200.182H186.762H239.669V186.967H186.762V139.891H239.669V126.677H186.762V80.4262H239.669Z" fill="#3F3D56"/>
<path d="M757.164 80.4262V67.2117H691.031V68.0381V80.4262V126.677V139.891V186.967V200.182H704.258H757.164V186.967H704.258V139.891H757.164V126.677H704.258V80.4262H757.164Z" fill="#6C63FF"/>
<path d="M128.895 68.038V177.252L94.0199 142.411L93.9406 142.491L93.8666 142.417L58.2145 178.036V67.6252H44.9875V199.769H58.2145V196.724L93.9469 161.025L128.895 195.94V200.181H142.121V68.038H128.895Z" fill="#3F3D56"/>
<path d="M647.217 68.038V71.0823L611.485 106.781L576.537 71.8664V67.6252H563.31V199.769H576.537V90.554L611.411 125.396L611.491 125.316L611.564 125.389L647.217 89.7699V200.181H660.444V68.038H647.217Z" fill="#3F3D56"/>
<path d="M329.32 31.6961C333.804 31.6961 337.439 28.0647 337.439 23.5852C337.439 19.1056 333.804 15.4742 329.32 15.4742C324.837 15.4742 321.202 19.1056 321.202 23.5852C321.202 28.0647 324.837 31.6961 329.32 31.6961Z" fill="#6C63FF"/>
<path d="M102.001 76.7568C106.485 76.7568 110.119 73.1254 110.119 68.6459C110.119 64.1663 106.485 60.5349 102.001 60.5349C97.5171 60.5349 93.8823 64.1663 93.8823 68.6459C93.8823 73.1254 97.5171 76.7568 102.001 76.7568Z" fill="#6C63FF"/>
<path d="M262.568 257C267.052 257 270.686 253.369 270.686 248.889C270.686 244.41 267.052 240.778 262.568 240.778C258.084 240.778 254.449 244.41 254.449 248.889C254.449 253.369 258.084 257 262.568 257Z" fill="#6C63FF"/>
<path d="M493.495 56.0289C497.979 56.0289 501.614 52.3975 501.614 47.9179C501.614 43.4384 497.979 39.807 493.495 39.807C489.012 39.807 485.377 43.4384 485.377 47.9179C485.377 52.3975 489.012 56.0289 493.495 56.0289Z" fill="#6C63FF"/>
<path d="M705.479 249.79C709.963 249.79 713.598 246.159 713.598 241.679C713.598 237.2 709.963 233.568 705.479 233.568C700.996 233.568 697.361 237.2 697.361 241.679C697.361 246.159 700.996 249.79 705.479 249.79Z" fill="#6C63FF"/>
<path d="M713.598 37.1034C718.082 37.1034 721.717 33.472 721.717 28.9924C721.717 24.5129 718.082 20.8815 713.598 20.8815C709.114 20.8815 705.479 24.5129 705.479 28.9924C705.479 33.472 709.114 37.1034 713.598 37.1034Z" fill="#6C63FF"/>
<path d="M610.763 183.1C615.247 183.1 618.882 179.469 618.882 174.989C618.882 170.51 615.247 166.878 610.763 166.878C606.279 166.878 602.645 170.51 602.645 174.989C602.645 179.469 606.279 183.1 610.763 183.1Z" fill="#6C63FF"/>
<path d="M972 65.4049V198.374H1038.13V65.4049H972ZM1024.91 185.16H985.227V78.6193H1024.91V185.16Z" fill="#6C63FF"/>
<path d="M949.319 134.222C953.803 134.222 957.438 130.59 957.438 126.111C957.438 121.631 953.803 118 949.319 118C944.835 118 941.201 121.631 941.201 126.111C941.201 130.59 944.835 134.222 949.319 134.222Z" fill="#6C63FF"/>
<path d="M790.319 93.2219C794.803 93.2219 798.438 89.8143 798.438 85.6109C798.438 81.4075 794.803 78 790.319 78C785.835 78 782.201 81.4075 782.201 85.6109C782.201 89.8143 785.835 93.2219 790.319 93.2219Z" fill="#6C63FF"/>
<path d="M840.319 202.222C844.803 202.222 848.438 198.814 848.438 194.611C848.438 190.408 844.803 187 840.319 187C835.835 187 832.201 190.408 832.201 194.611C832.201 198.814 835.835 202.222 840.319 202.222Z" fill="#6C63FF"/>
<path d="M880.68 79.2145L880.68 198.143L893.907 198.143L893.907 79.2145L893.907 66L880.68 66L827.773 66L827.773 79.2145L880.68 79.2145Z" fill="#6C63FF"/>
<rect x="893" y="66" width="53" height="13" fill="#6C63FF"/>
</svg>
