<svg width="995" height="460" viewBox="0 0 995 460" fill="none" xmlns="http://www.w3.org/2000/svg">
<path d="M70.3535 300.105H122.695V452.115H70.3535V300.105Z" fill="#6C63FF"/>
<path d="M70.3535 300.105H201.184V325.534H70.3535V300.105Z" fill="#6C63FF"/>
<path d="M70.3527 426.687H201.183V452.115H70.3527V426.687Z" fill="#6C63FF"/>
<path d="M123.117 376.11L148.971 349.838V402.382L123.117 376.11Z" fill="#6C63FF"/>
<path fill-rule="evenodd" clip-rule="evenodd" d="M201.183 300.105H148.842V452.115H201.183V394.721L181.479 376.11L201.183 357.5V300.105Z" fill="#6C63FF"/>
<path fill-rule="evenodd" clip-rule="evenodd" d="M52.3417 300.105H0V324.899L52.3417 351.149L0 377.399V452.115H52.3417V351.149V300.105Z" fill="#3F3D56"/>
<path d="M270.769 394.927H222.433V376.29H234.517V320.377H222.433V301.74H270.769V320.377H258.685V376.29H270.769V394.927Z" fill="#3F3D56"/>
<path d="M363.402 343.008L344.605 376.29H325.808L307.01 343.008V394.927H282.843V301.74H308.353L335.206 350.996L362.06 301.74H387.57V394.927H363.402V343.008Z" fill="#3F3D56"/>
<path d="M476.238 393.596C456.277 395.371 439.718 396.258 426.56 396.258C417.788 396.258 411.343 394.217 407.225 390.135C403.108 386.052 401.049 379.662 401.049 370.965V328.365C401.049 319.046 403.153 312.301 407.36 308.13C411.656 303.87 418.504 301.74 427.902 301.74H476.238V320.377H433.273C427.902 320.377 425.217 323.04 425.217 328.365V370.965C425.217 373.006 425.799 374.648 426.963 375.89C428.216 377.044 429.782 377.621 431.662 377.621C433.542 377.621 435.6 377.621 437.838 377.621C440.076 377.532 442.403 377.443 444.82 377.355C447.237 377.266 449.654 377.177 452.07 377.088C454.577 377 457.754 376.822 461.603 376.556C465.542 376.29 470.42 375.979 476.238 375.624V393.596Z" fill="#3F3D56"/>
<path d="M503.779 394.927H477.597L513.177 301.74H540.03L575.611 394.927H549.429L543.387 378.286H509.821L503.779 394.927ZM515.863 360.98H537.345L526.604 329.696L515.863 360.98Z" fill="#3F3D56"/>
<path d="M622.573 301.74H676.279C685.051 301.74 691.496 303.737 695.614 307.73C699.731 311.635 701.79 317.626 701.79 325.702C701.79 331.027 700.626 335.376 698.299 338.748C695.972 342.032 693.107 344.34 689.706 345.671C696.956 347.623 701.879 352.416 704.475 360.048C705.37 362.8 705.818 365.995 705.818 369.633C705.818 378.331 703.759 384.721 699.642 388.803C695.524 392.886 689.079 394.927 680.307 394.927H622.573V301.74ZM681.65 365.64C681.65 360.315 678.965 357.652 673.594 357.652H646.741V376.29H673.594C678.965 376.29 681.65 373.627 681.65 368.302V365.64ZM677.622 328.365C677.622 323.04 674.937 320.377 669.566 320.377H646.741V339.015H669.566C674.937 339.015 677.622 336.352 677.622 331.027V328.365Z" fill="#3F3D56"/>
<path d="M734.68 394.927H708.498L744.078 301.74H770.932L806.512 394.927H780.33L774.288 378.286H740.722L734.68 394.927ZM746.764 360.98H768.246L757.505 329.696L746.764 360.98Z" fill="#3F3D56"/>
<path d="M895.123 394.927H869.612L837.388 339.015V394.927H813.22V301.74H838.731L870.955 357.652V301.74H895.123V394.927Z" fill="#3F3D56"/>
<path d="M935.465 394.927H911.298V301.74H935.465V338.349H947.549L968.495 301.74H994.006L967.689 347.668L993.871 394.927H968.361L947.549 356.986H935.465V394.927Z" fill="#3F3D56"/>
<path d="M225.778 421.286L236.797 447.494L247.858 421.286H251.223V450.982H248.699V438.051L248.904 424.794L237.782 450.982H235.833L224.752 424.896L224.957 437.969V450.982H222.433V421.286H225.778Z" fill="#6C63FF"/>
<path d="M277.699 450.982C277.453 450.288 277.296 449.262 277.227 447.902C276.365 449.017 275.264 449.88 273.923 450.492C272.596 451.09 271.187 451.39 269.696 451.39C267.562 451.39 265.832 450.798 264.505 449.615C263.191 448.432 262.535 446.936 262.535 445.128C262.535 442.98 263.431 441.28 265.223 440.029C267.029 438.778 269.539 438.153 272.754 438.153H277.207V435.644C277.207 434.067 276.714 432.83 275.729 431.932C274.758 431.021 273.335 430.566 271.461 430.566C269.751 430.566 268.335 431.001 267.213 431.871C266.092 432.741 265.531 433.788 265.531 435.012L263.068 434.991C263.068 433.237 263.889 431.721 265.531 430.443C267.172 429.151 269.19 428.506 271.584 428.506C274.06 428.506 276.01 429.124 277.432 430.362C278.869 431.585 279.608 433.299 279.649 435.501V445.944C279.649 448.079 279.874 449.676 280.326 450.737V450.982H277.699ZM269.984 449.228C271.625 449.228 273.089 448.833 274.375 448.045C275.675 447.256 276.618 446.202 277.207 444.883V440.029H272.815C270.367 440.056 268.451 440.505 267.07 441.375C265.688 442.232 264.997 443.415 264.997 444.924C264.997 446.161 265.455 447.188 266.372 448.004C267.302 448.82 268.506 449.228 269.984 449.228Z" fill="#6C63FF"/>
<path d="M296.952 439.866L294.141 442.558V450.982H291.678V419.654H294.141V439.703L296.46 437.215L304.955 428.914H308.054L298.635 438.214L308.874 450.982H305.94L296.952 439.866Z" fill="#6C63FF"/>
<path d="M320.494 450.982H318.031V428.914H320.494V450.982ZM317.6 422.53C317.6 422.067 317.751 421.68 318.052 421.367C318.353 421.041 318.763 420.878 319.283 420.878C319.803 420.878 320.213 421.041 320.514 421.367C320.829 421.68 320.986 422.067 320.986 422.53C320.986 422.992 320.829 423.38 320.514 423.692C320.213 424.005 319.803 424.161 319.283 424.161C318.763 424.161 318.353 424.005 318.052 423.692C317.751 423.38 317.6 422.992 317.6 422.53Z" fill="#6C63FF"/>
<path d="M334.986 428.914L335.068 432.687C335.903 431.327 336.942 430.294 338.187 429.587C339.432 428.866 340.807 428.506 342.312 428.506C344.692 428.506 346.464 429.172 347.626 430.504C348.789 431.837 349.378 433.836 349.391 436.501V450.982H346.949V436.48C346.936 434.509 346.512 433.04 345.677 432.075C344.856 431.109 343.536 430.627 341.717 430.627C340.198 430.627 338.851 431.103 337.674 432.054C336.511 432.993 335.649 434.264 335.089 435.868V450.982H332.647V428.914H334.986Z" fill="#6C63FF"/>
<path d="M360.231 439.744C360.231 436.29 360.997 433.557 362.529 431.545C364.075 429.519 366.168 428.506 368.808 428.506C371.832 428.506 374.13 429.702 375.703 432.095L375.826 428.914H378.124V450.533C378.124 453.375 377.324 455.625 375.724 457.284C374.123 458.943 371.955 459.772 369.219 459.772C367.673 459.772 366.195 459.425 364.786 458.732C363.391 458.052 362.29 457.141 361.483 455.999L362.857 454.53C364.595 456.652 366.66 457.712 369.055 457.712C371.107 457.712 372.707 457.107 373.856 455.897C375.005 454.7 375.6 453.035 375.642 450.9V448.126C374.068 450.302 371.777 451.39 368.767 451.39C366.195 451.39 364.13 450.37 362.57 448.33C361.011 446.291 360.231 443.537 360.231 440.07V439.744ZM362.714 440.172C362.714 442.987 363.281 445.21 364.417 446.841C365.552 448.459 367.153 449.268 369.219 449.268C372.242 449.268 374.383 447.922 375.642 445.23V434.971C375.067 433.557 374.239 432.483 373.159 431.749C372.078 431.001 370.778 430.627 369.26 430.627C367.194 430.627 365.587 431.436 364.437 433.054C363.288 434.658 362.714 437.031 362.714 440.172Z" fill="#6C63FF"/>
<path d="M406.247 450.982V421.286H415.071C418.272 421.286 420.7 421.945 422.355 423.264C424.011 424.569 424.838 426.5 424.838 429.056C424.838 430.593 424.414 431.932 423.566 433.074C422.732 434.203 421.583 435.012 420.119 435.501C421.856 435.882 423.251 436.732 424.305 438.051C425.372 439.37 425.905 440.893 425.905 442.619C425.905 445.244 425.05 447.297 423.34 448.779C421.644 450.247 419.277 450.982 416.24 450.982H406.247ZM408.771 436.705V448.86H416.343C418.504 448.86 420.214 448.317 421.473 447.229C422.745 446.127 423.381 444.605 423.381 442.66C423.381 440.825 422.773 439.377 421.555 438.316C420.351 437.242 418.682 436.705 416.548 436.705H408.771ZM408.771 434.604H415.666C417.773 434.563 419.401 434.074 420.55 433.135C421.712 432.184 422.294 430.804 422.294 428.995C422.294 427.092 421.692 425.691 420.488 424.794C419.298 423.883 417.492 423.427 415.071 423.427H408.771V434.604Z" fill="#6C63FF"/>
<path d="M450.925 450.982C450.678 450.288 450.521 449.262 450.453 447.902C449.591 449.017 448.49 449.88 447.149 450.492C445.822 451.09 444.413 451.39 442.922 451.39C440.788 451.39 439.057 450.798 437.73 449.615C436.417 448.432 435.76 446.936 435.76 445.128C435.76 442.98 436.656 441.28 438.448 440.029C440.254 438.778 442.764 438.153 445.979 438.153H450.432V435.644C450.432 434.067 449.94 432.83 448.955 431.932C447.983 431.021 446.561 430.566 444.686 430.566C442.976 430.566 441.561 431.001 440.439 431.871C439.317 432.741 438.756 433.788 438.756 435.012L436.294 434.991C436.294 433.237 437.114 431.721 438.756 430.443C440.398 429.151 442.416 428.506 444.81 428.506C447.286 428.506 449.235 429.124 450.658 430.362C452.094 431.585 452.833 433.299 452.874 435.501V445.944C452.874 448.079 453.1 449.676 453.551 450.737V450.982H450.925ZM443.209 449.228C444.851 449.228 446.314 448.833 447.6 448.045C448.9 447.256 449.844 446.202 450.432 444.883V440.029H446.041C443.592 440.056 441.677 440.505 440.295 441.375C438.913 442.232 438.223 443.415 438.223 444.924C438.223 446.161 438.681 447.188 439.597 448.004C440.528 448.82 441.732 449.228 443.209 449.228Z" fill="#6C63FF"/>
<path d="M467.243 428.914L467.325 432.687C468.16 431.327 469.199 430.294 470.444 429.587C471.689 428.866 473.064 428.506 474.569 428.506C476.949 428.506 478.721 429.172 479.884 430.504C481.046 431.837 481.635 433.836 481.648 436.501V450.982H479.206V436.48C479.193 434.509 478.769 433.04 477.934 432.075C477.113 431.109 475.793 430.627 473.974 430.627C472.455 430.627 471.108 431.103 469.931 432.054C468.768 432.993 467.907 434.264 467.346 435.868V450.982H464.904V428.914H467.243Z" fill="#6C63FF"/>
<path d="M498.747 439.866L495.935 442.558V450.982H493.473V419.654H495.935V439.703L498.254 437.215L506.749 428.914H509.848L500.429 438.214L510.669 450.982H507.734L498.747 439.866Z" fill="#6C63FF"/>
<path d="M522.288 450.982H519.826V428.914H522.288V450.982ZM519.395 422.53C519.395 422.067 519.545 421.68 519.846 421.367C520.147 421.041 520.558 420.878 521.078 420.878C521.597 420.878 522.008 421.041 522.309 421.367C522.623 421.68 522.781 422.067 522.781 422.53C522.781 422.992 522.623 423.38 522.309 423.692C522.008 424.005 521.597 424.161 521.078 424.161C520.558 424.161 520.147 424.005 519.846 423.692C519.545 423.38 519.395 422.992 519.395 422.53Z" fill="#6C63FF"/>
<path d="M536.78 428.914L536.863 432.687C537.697 431.327 538.737 430.294 539.982 429.587C541.227 428.866 542.601 428.506 544.106 428.506C546.487 428.506 548.258 429.172 549.421 430.504C550.584 431.837 551.172 433.836 551.186 436.501V450.982H548.744V436.48C548.73 434.509 548.306 433.04 547.472 432.075C546.651 431.109 545.331 430.627 543.511 430.627C541.993 430.627 540.645 431.103 539.469 432.054C538.306 432.993 537.444 434.264 536.883 435.868V450.982H534.441V428.914H536.78Z" fill="#6C63FF"/>
<path d="M562.025 439.744C562.025 436.29 562.791 433.557 564.324 431.545C565.869 429.519 567.963 428.506 570.603 428.506C573.626 428.506 575.924 429.702 577.498 432.095L577.621 428.914H579.919V450.533C579.919 453.375 579.119 455.625 577.518 457.284C575.918 458.943 573.749 459.772 571.013 459.772C569.467 459.772 567.99 459.425 566.581 458.732C565.185 458.052 564.084 457.141 563.277 455.999L564.652 454.53C566.389 456.652 568.455 457.712 570.849 457.712C572.901 457.712 574.502 457.107 575.651 455.897C576.8 454.7 577.395 453.035 577.436 450.9V448.126C575.863 450.302 573.571 451.39 570.562 451.39C567.99 451.39 565.924 450.37 564.365 448.33C562.805 446.291 562.025 443.537 562.025 440.07V439.744ZM564.508 440.172C564.508 442.987 565.076 445.21 566.211 446.841C567.347 448.459 568.947 449.268 571.013 449.268C574.036 449.268 576.177 447.922 577.436 445.23V434.971C576.861 433.557 576.034 432.483 574.953 431.749C573.872 431.001 572.573 430.627 571.054 430.627C568.989 430.627 567.381 431.436 566.232 433.054C565.083 434.658 564.508 437.031 564.508 440.172Z" fill="#6C63FF"/>
<path d="M624.54 436.745H610.566V448.86H626.633V450.982H608.042V421.286H626.53V423.427H610.566V434.624H624.54V436.745Z" fill="#6C63FF"/>
<path d="M650.872 450.982C650.626 450.288 650.469 449.262 650.4 447.902C649.538 449.017 648.437 449.88 647.097 450.492C645.77 451.09 644.36 451.39 642.869 451.39C640.735 451.39 639.005 450.798 637.678 449.615C636.364 448.432 635.708 446.936 635.708 445.128C635.708 442.98 636.604 441.28 638.396 440.029C640.202 438.778 642.712 438.153 645.927 438.153H650.38V435.644C650.38 434.067 649.887 432.83 648.902 431.932C647.931 431.021 646.508 430.566 644.634 430.566C642.924 430.566 641.508 431.001 640.386 431.871C639.265 432.741 638.704 433.788 638.704 435.012L636.241 434.991C636.241 433.237 637.062 431.721 638.704 430.443C640.345 429.151 642.363 428.506 644.757 428.506C647.233 428.506 649.183 429.124 650.605 430.362C652.042 431.585 652.781 433.299 652.822 435.501V445.944C652.822 448.079 653.047 449.676 653.499 450.737V450.982H650.872ZM643.157 449.228C644.798 449.228 646.262 448.833 647.548 448.045C648.848 447.256 649.792 446.202 650.38 444.883V440.029H645.988C643.54 440.056 641.624 440.505 640.243 441.375C638.861 442.232 638.17 443.415 638.17 444.924C638.17 446.161 638.629 447.188 639.545 448.004C640.475 448.82 641.679 449.228 643.157 449.228Z" fill="#6C63FF"/>
<path d="M678.149 445.373C678.149 444.163 677.656 443.19 676.671 442.456C675.7 441.722 674.229 441.151 672.259 440.743C670.289 440.322 668.757 439.846 667.663 439.315C666.582 438.771 665.775 438.112 665.241 437.337C664.721 436.562 664.462 435.624 664.462 434.522C664.462 432.782 665.193 431.347 666.657 430.219C668.121 429.077 669.995 428.506 672.28 428.506C674.756 428.506 676.74 429.118 678.231 430.341C679.735 431.551 680.488 433.135 680.488 435.093H678.025C678.025 433.802 677.478 432.728 676.384 431.871C675.303 431.014 673.935 430.586 672.28 430.586C670.666 430.586 669.366 430.946 668.381 431.667C667.41 432.374 666.924 433.299 666.924 434.441C666.924 435.542 667.328 436.399 668.135 437.011C668.955 437.609 670.44 438.16 672.588 438.663C674.749 439.166 676.363 439.703 677.43 440.274C678.511 440.845 679.311 441.532 679.831 442.334C680.351 443.136 680.611 444.108 680.611 445.25C680.611 447.113 679.852 448.602 678.333 449.717C676.828 450.832 674.858 451.39 672.423 451.39C669.838 451.39 667.738 450.771 666.124 449.534C664.523 448.283 663.723 446.705 663.723 444.802H666.185C666.281 446.229 666.883 447.344 667.991 448.147C669.113 448.935 670.59 449.33 672.423 449.33C674.133 449.33 675.515 448.956 676.569 448.208C677.622 447.46 678.149 446.515 678.149 445.373Z" fill="#6C63FF"/>
<path d="M698.653 447.474L705.138 428.914H707.785L698.304 454.734L697.812 455.877C696.594 458.555 694.713 459.895 692.169 459.895C691.581 459.895 690.951 459.799 690.281 459.609L690.26 457.59L691.533 457.712C692.737 457.712 693.708 457.413 694.447 456.815C695.199 456.23 695.835 455.217 696.355 453.776L697.443 450.798L689.07 428.914H691.758L698.653 447.474Z" fill="#6C63FF"/>
<path d="M389.936 80.4262V67.2117H323.802V68.0381V80.4262V186.967V200.182H337.029H389.936V186.967H337.029V80.4262H389.936Z" fill="#3F3D56"/>
<path d="M422.176 67.2119V200.181H488.31V67.2119H422.176ZM475.083 186.967H435.403V80.4263H475.083V186.967Z" fill="#6C63FF"/>
<path d="M238.655 186.967V68.0381H225.428V186.967V200.182H238.655H291.562V186.967H238.655Z" fill="#6C63FF"/>
<path d="M195.669 80.4262V67.2117H129.535V68.0381V80.4262V126.677V139.891V186.967V200.182H142.762H195.669V186.967H142.762V139.891H195.669V126.677H142.762V80.4262H195.669Z" fill="#3F3D56"/>
<path d="M713.164 80.4262V67.2117H647.031V68.0381V80.4262V126.677V139.891V186.967V200.182H660.258H713.164V186.967H660.258V139.891H713.164V126.677H660.258V80.4262H713.164Z" fill="#6C63FF"/>
<path d="M84.8945 68.038V177.252L50.0199 142.411L49.9406 142.491L49.8666 142.417L14.2145 178.036V67.6252H0.987549V199.769H14.2145V196.724L49.9469 161.025L84.8945 195.94V200.181H98.1214V68.038H84.8945Z" fill="#3F3D56"/>
<path d="M603.217 68.038V71.0823L567.485 106.781L532.537 71.8664V67.6252H519.31V199.769H532.537V90.554L567.411 125.396L567.491 125.316L567.564 125.389L603.217 89.7699V200.181H616.444V68.038H603.217Z" fill="#3F3D56"/>
<path d="M285.32 31.6961C289.804 31.6961 293.439 28.0647 293.439 23.5852C293.439 19.1056 289.804 15.4742 285.32 15.4742C280.837 15.4742 277.202 19.1056 277.202 23.5852C277.202 28.0647 280.837 31.6961 285.32 31.6961Z" fill="#6C63FF"/>
<path d="M58.0009 76.7568C62.4846 76.7568 66.1194 73.1254 66.1194 68.6459C66.1194 64.1663 62.4846 60.5349 58.0009 60.5349C53.5171 60.5349 49.8823 64.1663 49.8823 68.6459C49.8823 73.1254 53.5171 76.7568 58.0009 76.7568Z" fill="#6C63FF"/>
<path d="M218.568 257C223.052 257 226.686 253.369 226.686 248.889C226.686 244.41 223.052 240.778 218.568 240.778C214.084 240.778 210.449 244.41 210.449 248.889C210.449 253.369 214.084 257 218.568 257Z" fill="#6C63FF"/>
<path d="M449.495 56.0289C453.979 56.0289 457.614 52.3975 457.614 47.9179C457.614 43.4384 453.979 39.807 449.495 39.807C445.012 39.807 441.377 43.4384 441.377 47.9179C441.377 52.3975 445.012 56.0289 449.495 56.0289Z" fill="#6C63FF"/>
<path d="M661.479 249.79C665.963 249.79 669.598 246.159 669.598 241.679C669.598 237.2 665.963 233.568 661.479 233.568C656.996 233.568 653.361 237.2 653.361 241.679C653.361 246.159 656.996 249.79 661.479 249.79Z" fill="#6C63FF"/>
<path d="M669.598 37.1034C674.082 37.1034 677.717 33.472 677.717 28.9924C677.717 24.5129 674.082 20.8815 669.598 20.8815C665.114 20.8815 661.479 24.5129 661.479 28.9924C661.479 33.472 665.114 37.1034 669.598 37.1034Z" fill="#6C63FF"/>
<path d="M566.763 183.1C571.247 183.1 574.882 179.469 574.882 174.989C574.882 170.51 571.247 166.878 566.763 166.878C562.279 166.878 558.645 170.51 558.645 174.989C558.645 179.469 562.279 183.1 566.763 183.1Z" fill="#6C63FF"/>
<path d="M930.803 65.4049V198.374H994.134V65.4049H930.803ZM981.468 185.16H943.469V78.6193H981.468V185.16Z" fill="#6C63FF"/>
<path d="M909.084 134.222C913.377 134.222 916.858 130.59 916.858 126.111C916.858 121.631 913.377 118 909.084 118C904.79 118 901.309 121.631 901.309 126.111C901.309 130.59 904.79 134.222 909.084 134.222Z" fill="#6C63FF"/>
<path d="M756.823 93.2219C761.116 93.2219 764.597 89.8143 764.597 85.6109C764.597 81.4075 761.116 78 756.823 78C752.529 78 749.048 81.4075 749.048 85.6109C749.048 89.8143 752.529 93.2219 756.823 93.2219Z" fill="#6C63FF"/>
<path d="M804.703 202.222C808.997 202.222 812.478 198.814 812.478 194.611C812.478 190.408 808.997 187 804.703 187C800.41 187 796.929 190.408 796.929 194.611C796.929 198.814 800.41 202.222 804.703 202.222Z" fill="#6C63FF"/>
<path d="M843.353 79.2145L843.353 198.143L856.02 198.143L856.02 79.2145L856.02 66L843.353 66L792.689 66L792.689 79.2145L843.353 79.2145Z" fill="#6C63FF"/>
<rect x="855.151" y="66" width="50.7537" height="13" fill="#6C63FF"/>
</svg>
