<svg width="11" height="25" viewBox="0 0 11 25" fill="none" xmlns="http://www.w3.org/2000/svg">
<path fill-rule="evenodd" clip-rule="evenodd" d="M4.27584 8.54701H6.6216C7.87184 8.07347 8.76068 6.86489 8.76068 5.44872C8.76068 3.61957 7.27786 2.13675 5.44872 2.13675C3.61957 2.13675 2.13675 3.61957 2.13675 5.44872C2.13675 6.86489 3.02559 8.07347 4.27584 8.54701ZM2.18616 9.8131C0.85893 8.81934 0 7.23433 0 5.44872C0 2.43947 2.43947 0 5.44872 0C8.45796 0 10.8974 2.43947 10.8974 5.44872C10.8974 7.34428 9.92947 9.01376 8.46087 9.98985L5.34188 25L2.18616 9.8131Z" fill="#3F3D56"/>
<path d="M8.75479 5.44868C8.75479 7.27783 7.27197 8.76065 5.44283 8.76065C3.61368 8.76065 2.13086 7.27783 2.13086 5.44868C2.13086 3.61954 3.61368 2.13672 5.44283 2.13672C7.27197 2.13672 8.75479 3.61954 8.75479 5.44868Z" fill="white"/>
</svg>
