<svg width="21" height="20" viewBox="0 0 21 20" fill="none" xmlns="http://www.w3.org/2000/svg">
<path d="M0 9.67504V9.64675C0.254588 6.36539 1.44267 3.90437 3.50766 2.34855C5.54436 0.764449 7.7508 0.000684496 10.1552 0.000684496C12.6728 -0.0276031 15.0207 0.821024 17.114 2.51828C19.2356 4.18725 20.2822 6.67655 20.2822 9.90134V10.0993C20.2822 13.3524 19.2356 15.7852 17.114 17.4541C14.9924 19.1514 12.6445 20 10.127 20H10.0138C7.55278 19.9717 5.28978 19.1231 3.1965 17.4258C1.10322 15.7569 0.0282876 13.1827 0 9.67504ZM9.53291 5.23389V0.764449H8.85401C8.71257 0.934175 8.59942 1.13219 8.48627 1.30191C8.37312 1.47164 8.25997 1.64136 8.14682 1.83938C8.03367 2.0091 7.89223 2.2354 7.80737 2.40513C7.69422 2.57485 7.60936 2.74458 7.5245 2.94259C7.35477 3.22547 7.21333 3.50834 7.10018 3.76293C6.95874 4.01752 6.84559 4.27211 6.76073 4.49841C6.93046 4.61156 7.12847 4.753 7.35477 4.83786C7.60936 4.92272 7.86395 5.00759 8.11853 5.06416C8.40141 5.12074 8.656 5.14902 8.8823 5.17731C9.13689 5.2056 9.36319 5.23389 9.53291 5.23389ZM10.721 0.764449V5.2056C10.8624 5.2056 11.0322 5.23389 11.2019 5.2056C11.3716 5.2056 11.5696 5.17731 11.7393 5.14902C12.0505 5.09245 12.4182 5.00759 12.7011 4.92272C13.0123 4.80957 13.2952 4.66813 13.4932 4.49841C13.1537 3.67807 12.786 3.02746 12.4182 2.40513C12.0505 1.7828 11.6262 1.24534 11.1736 0.792737V0.764449H10.721ZM7.66593 1.01904V0.99075C7.46792 1.07561 7.26991 1.21705 7.04361 1.30191C6.84559 1.38678 6.59101 1.49993 6.39299 1.61308C5.99697 1.81109 5.60094 2.03739 5.20491 2.29198C4.83718 2.54657 4.46944 2.82944 4.15827 3.11232C4.27142 3.22547 4.41286 3.33862 4.52601 3.42348C4.63916 3.50834 4.7806 3.62149 4.92204 3.73464C5.03519 3.79122 5.17663 3.87608 5.31806 3.98923C5.4595 4.0741 5.62923 4.18725 5.79895 4.3004C6.02525 3.79122 6.25155 3.25376 6.53443 2.77287C6.81731 2.26369 7.12847 1.7828 7.43963 1.35849C7.46792 1.30191 7.49621 1.24534 7.55278 1.18876C7.58107 1.16048 7.60936 1.07561 7.66593 1.01904ZM16.3219 3.11232V3.08403C15.6147 2.54657 14.9924 2.09397 14.3701 1.81109C13.7478 1.52821 13.1254 1.24534 12.5597 1.01904C13.0123 1.47164 13.4083 2.03739 13.6629 2.57485C13.9458 3.14061 14.2287 3.73464 14.455 4.3004C14.5681 4.24382 14.7095 4.18725 14.8793 4.0741C15.0207 3.98923 15.2187 3.90437 15.3884 3.81951C15.5582 3.70636 15.6996 3.59321 15.8693 3.48006C16.0391 3.33862 16.2088 3.22547 16.3219 3.11232ZM15.841 9.42045H19.0941C19.0941 8.37381 18.8678 7.38374 18.4435 6.36539C18.0475 5.37532 17.4817 4.55498 16.7745 3.8478V3.81951C16.6331 4.04581 16.4351 4.24382 16.2371 4.38526C16.0108 4.5267 15.8128 4.63985 15.5865 4.753C15.445 4.83786 15.3036 4.95101 15.1621 5.00759C15.0207 5.09245 14.8227 5.14902 14.6813 5.23389C14.7944 5.46019 14.9076 5.71478 15.0207 5.94108C15.1056 6.19566 15.247 6.47854 15.3036 6.73313C15.4733 7.18573 15.5865 7.66662 15.6996 8.14751C15.7845 8.57182 15.841 9.02442 15.841 9.42045ZM5.60094 5.23389V5.2056C5.37464 5.09245 5.12005 5.00759 4.92204 4.89444C4.72403 4.753 4.52601 4.61156 4.35629 4.49841C4.18656 4.41355 4.01684 4.3004 3.8754 4.18725C3.73396 4.0741 3.62081 3.96095 3.50766 3.8478C2.77218 4.55498 2.23472 5.34704 1.89527 6.28053C1.52753 7.21402 1.27294 8.26066 1.15979 9.39216H4.63916C4.63916 8.60011 4.75231 7.83634 4.95033 7.07258C5.12005 6.28053 5.37464 5.68649 5.60094 5.23389ZM9.53291 9.39216V6.13909C9.30661 6.16738 9.02374 6.16738 8.76915 6.13909C8.48627 6.1108 8.2034 6.02594 7.94881 5.94108C7.72251 5.8845 7.43963 5.82793 7.21333 5.74306C6.95874 5.68649 6.70416 5.57334 6.50614 5.46019C6.33642 5.74306 6.19498 6.08251 6.08183 6.45025C5.94039 6.7897 5.85553 7.15744 5.77067 7.49689C5.71409 7.83634 5.6858 8.20408 5.65752 8.51525C5.62923 8.82641 5.60094 9.13757 5.60094 9.39216H9.53291ZM10.721 6.19566V9.39216H14.9076C14.9076 9.22243 14.9076 9.02442 14.8793 8.79812C14.8227 8.60011 14.7944 8.34552 14.7661 8.11922C14.6813 7.77977 14.5964 7.41203 14.4832 7.07258C14.3701 6.76142 14.2569 6.45025 14.1155 6.19566C14.0589 6.05423 14.0024 5.8845 13.9458 5.77135C13.8609 5.62991 13.776 5.54505 13.7195 5.46019C13.4083 5.68649 12.984 5.82793 12.4748 5.94108C11.9939 6.05423 11.4282 6.16738 10.919 6.19566H10.721ZM4.63916 10.3257H1.15979C1.15979 10.8065 1.24465 11.344 1.38609 11.9946C1.52753 12.6735 1.8104 13.2958 2.12157 13.9747C2.26301 14.3142 2.43273 14.6536 2.60246 14.9931C2.80047 15.3043 3.02677 15.6437 3.25307 15.9549C3.4228 15.8417 3.59252 15.7569 3.73396 15.672C3.90369 15.5871 4.1017 15.474 4.27142 15.3891C4.46944 15.3043 4.66745 15.2194 4.89375 15.1062C5.09176 15.0214 5.34635 14.9082 5.60094 14.7951C5.37464 14.0879 5.12005 13.409 4.95033 12.6452C4.75231 11.9098 4.63916 11.1743 4.63916 10.3539V10.3257ZM9.53291 13.6353V10.3257H5.60094C5.60094 10.552 5.62923 10.8914 5.6858 11.2309C5.71409 11.5703 5.79895 11.938 5.85553 12.3058C5.96868 12.7018 6.05354 13.0978 6.16669 13.4373C6.27984 13.7767 6.39299 14.0596 6.50614 14.3142C7.01532 14.1162 7.5245 13.9747 7.86395 13.8899C8.23168 13.7767 8.57114 13.6919 8.91059 13.6636H9.22175C9.3349 13.6353 9.44805 13.6353 9.53291 13.6353ZM10.721 10.3257V13.607C10.919 13.6353 11.1453 13.6636 11.3716 13.6919C11.6262 13.7202 11.9374 13.7767 12.1919 13.8333L12.6163 13.9182C12.7577 13.9747 12.9274 14.003 13.0689 14.0313C13.2386 14.0879 13.4083 14.1162 13.578 14.1728C13.7195 14.2293 13.8609 14.2576 13.9741 14.3142C14.3418 13.3807 14.5681 12.6169 14.7095 11.9663C14.851 11.344 14.9076 10.8065 14.9076 10.3539V10.3257H10.721ZM19.0941 10.3539V10.3257H15.841V10.4954C15.8128 11.0328 15.7279 11.6552 15.6147 12.3058C15.5016 12.9281 15.247 13.6636 14.9076 14.5688C15.3602 14.7951 15.7845 15.0214 16.1239 15.2477C16.4634 15.474 16.7745 15.7286 17.0008 15.9549C17.4817 15.474 17.906 14.8234 18.2738 13.9747C18.6415 13.1544 18.8961 12.3058 19.0375 11.4006C19.0658 11.2309 19.0658 11.0611 19.0941 10.8914V10.3539ZM9.53291 18.9534V14.5405C8.82572 14.6536 8.23168 14.7951 7.77908 14.9082C7.32648 15.0214 6.98703 15.1345 6.76073 15.2477C6.93046 15.672 7.10018 16.0397 7.26991 16.3792C7.43963 16.6904 7.63765 17.0298 7.80737 17.3127C7.86395 17.4258 7.9771 17.539 8.06196 17.6804C8.14682 17.7936 8.2034 17.935 8.28826 18.0482C8.37312 18.1896 8.45798 18.3593 8.54285 18.529C8.656 18.6705 8.74086 18.8402 8.85401 18.9534H9.53291ZM10.721 18.9534H11.3716C11.6262 18.7553 11.8808 18.4725 12.0788 18.1613C12.3051 17.8501 12.5597 17.4824 12.7294 17.1712C12.9274 16.8035 13.1254 16.4641 13.2952 16.1246C13.4649 15.7852 13.6063 15.474 13.7195 15.2477C13.4083 15.1345 12.984 15.0214 12.5597 14.9082C12.1354 14.7951 11.5413 14.6819 10.721 14.5688V18.9534ZM16.3219 16.6338V16.6055C16.2654 16.5206 16.1522 16.4075 16.0673 16.3226C15.9825 16.2378 15.841 16.1246 15.6996 16.0397C15.5865 15.9549 15.445 15.87 15.2753 15.7852C15.1056 15.7003 14.8793 15.5871 14.6813 15.474C14.5681 15.7003 14.3701 16.0963 14.0872 16.6338C13.8326 17.1712 13.38 17.8219 12.8143 18.529C13.5215 18.4159 14.1438 18.1613 14.7095 17.8219C15.3319 17.5107 15.8693 17.0864 16.3219 16.6338ZM5.79895 15.7286V15.7003C5.60094 15.8134 5.28978 15.9549 4.97861 16.0963C4.63916 16.2378 4.27142 16.4075 3.93197 16.6338C4.12999 16.8035 4.328 16.9732 4.49772 17.0864C4.66745 17.2278 4.86546 17.341 5.03519 17.4541C5.34635 17.6521 5.71409 17.8501 6.08183 18.0199C6.44957 18.1896 6.90217 18.3593 7.46792 18.529C7.26991 18.3027 7.12847 18.0199 6.98703 17.7936C6.84559 17.5673 6.67587 17.341 6.53443 17.1147C6.39299 16.8884 6.27984 16.6338 6.16669 16.4075C6.02525 16.1812 5.9121 15.9549 5.79895 15.7286Z" fill="#3F3D56"/>
</svg>
